<svg width="108" height="27" viewBox="0 0 108 27" fill="none" xmlns="http://www.w3.org/2000/svg">
<g clip-path="url(#clip0_1_5134)">
<path d="M7.21039 0.719939C11.2004 0.719939 12.9154 2.57494 12.9154 6.35494V7.22994C12.9154 9.74994 12.1454 11.3599 10.4304 12.1649C12.4954 12.9699 13.3004 14.8249 13.3004 17.4149V19.4099C13.3004 23.1899 11.3054 25.2199 7.45539 25.2199H1.40039V0.719939H7.21039ZM6.96539 14.1949H5.25039V21.7199H7.45539C8.75039 21.7199 9.45039 21.1249 9.45039 19.3049V17.1699C9.45039 14.8949 8.71539 14.1949 6.96539 14.1949ZM7.10539 4.21994H5.25039V10.6949H6.75539C8.19039 10.6949 9.06539 10.0649 9.06539 8.10494V6.73994C9.06539 4.98994 8.47039 4.21994 7.10539 4.21994ZM20.9042 6.35494V19.5849C20.9042 21.3349 21.6742 21.9999 22.8992 21.9999C24.1242 21.9999 24.8942 21.3349 24.8942 19.5849V6.35494C24.8942 4.60494 24.1242 3.93994 22.8992 3.93994C21.6742 3.93994 20.9042 4.60494 20.9042 6.35494ZM17.0542 19.3399V6.59994C17.0542 2.67994 19.1192 0.439941 22.8992 0.439941C26.6792 0.439941 28.7442 2.67994 28.7442 6.59994V19.3399C28.7442 23.2599 26.6792 25.4999 22.8992 25.4999C19.1192 25.4999 17.0542 23.2599 17.0542 19.3399ZM41.7584 0.719939H45.3284L41.3034 12.6199L45.6084 25.2199H41.5484L38.3984 15.5249L35.2134 25.2199H31.6084L35.9134 12.6199L31.8884 0.719939H35.8784L38.7834 9.74994L41.7584 0.719939ZM56.2848 16.0849H59.9248V19.3399C59.9248 23.2599 57.9648 25.4999 54.1848 25.4999C50.4048 25.4999 48.4448 23.2599 48.4448 19.3399V6.59994C48.4448 2.67994 50.4048 0.439941 54.1848 0.439941C57.9648 0.439941 59.9248 2.67994 59.9248 6.59994V8.97994H56.2848V6.35494C56.2848 4.60494 55.5148 3.93994 54.2898 3.93994C53.0648 3.93994 52.2948 4.60494 52.2948 6.35494V19.5849C52.2948 21.3349 53.0648 21.9649 54.2898 21.9649C55.5148 21.9649 56.2848 21.3349 56.2848 19.5849V16.0849ZM72.5508 0.719939L76.4708 25.2199H72.5858L71.9208 20.7749H67.1958L66.5308 25.2199H62.9958L66.9158 0.719939H72.5508ZM69.5408 5.05994L67.6858 17.4499H71.3958L69.5408 5.05994ZM91.9837 25.2199H88.0637C87.8537 24.5899 87.7137 24.2049 87.7137 22.2099V18.3599C87.7137 16.0849 86.9437 15.2449 85.1937 15.2449H83.8637V25.2199H80.0137V0.719939H85.8237C89.8137 0.719939 91.5287 2.57494 91.5287 6.35494V8.27994C91.5287 10.7999 90.7237 12.4449 89.0087 13.2499C90.9337 14.0549 91.5637 15.9099 91.5637 18.4649V22.2449C91.5637 23.4349 91.5987 24.3099 91.9837 25.2199ZM85.7187 4.21994H83.8637V11.7449H85.3687C86.8037 11.7449 87.6787 11.1149 87.6787 9.15494V6.73994C87.6787 4.98994 87.0837 4.21994 85.7187 4.21994ZM95.3557 6.59994C95.3557 2.67994 97.2807 0.439941 101.025 0.439941C104.77 0.439941 106.695 2.67994 106.695 6.59994V7.36994H103.055V6.35494C103.055 4.60494 102.355 3.93994 101.13 3.93994C99.9057 3.93994 99.2057 4.60494 99.2057 6.35494C99.2057 11.3949 106.73 12.3399 106.73 19.3399C106.73 23.2599 104.77 25.4999 100.99 25.4999C97.2107 25.4999 95.2507 23.2599 95.2507 19.3399V17.8349H98.8907V19.5849C98.8907 21.3349 99.6607 21.9649 100.885 21.9649C102.11 21.9649 102.88 21.3349 102.88 19.5849C102.88 14.5449 95.3557 13.5999 95.3557 6.59994Z" fill="white"/>
</g>
<defs>
<clipPath id="clip0_1_5134">
<rect width="108" height="26" fill="white" transform="translate(0 0.219971)"/>
</clipPath>
</defs>
</svg>
