<svg width="16" height="12" viewBox="0 0 16 12" fill="none" xmlns="http://www.w3.org/2000/svg">
<path d="M14.7801 4.31989H15.3201C15.4801 4.31989 15.6101 4.25989 15.7101 4.13989C15.8101 4.01989 15.8601 3.88989 15.8601 3.74989C15.8601 3.60989 15.8101 3.47989 15.7101 3.35989C15.6101 3.23989 15.4801 3.17989 15.3201 3.17989H13.9401L13.1001 1.73989C12.8201 1.29989 12.4701 0.959893 12.0501 0.719893C11.6301 0.479893 11.1601 0.359893 10.6401 0.359893H5.36014C4.84014 0.359893 4.37014 0.479893 3.95014 0.719893C3.53014 0.959893 3.18014 1.29989 2.90014 1.73989L2.06014 3.17989H0.680137C0.520137 3.17989 0.390137 3.23989 0.290137 3.35989C0.190137 3.47989 0.140137 3.60989 0.140137 3.74989C0.140137 3.88989 0.190137 4.01989 0.290137 4.13989C0.390137 4.25989 0.520137 4.31989 0.680137 4.31989H1.28014L0.920137 4.73989C0.400137 5.45989 0.140137 6.25989 0.140137 7.13989V9.95989C0.140137 10.3999 0.300137 10.7899 0.620137 11.1299C0.940137 11.4699 1.34014 11.6399 1.82014 11.6399H2.96014C3.40014 11.6399 3.79014 11.4699 4.13014 11.1299C4.47014 10.7899 4.64014 10.3999 4.64014 9.95989H11.3601C11.3601 10.3999 11.5301 10.7899 11.8701 11.1299C12.2101 11.4699 12.6001 11.6399 13.0401 11.6399H14.1801C14.6601 11.6399 15.0601 11.4699 15.3801 11.1299C15.7001 10.7899 15.8601 10.3999 15.8601 9.95989V7.13989C15.8601 6.25989 15.6001 5.45989 15.0801 4.73989L14.7801 4.31989ZM3.86014 2.33989C4.02014 2.05989 4.23014 1.84989 4.49014 1.70989C4.75014 1.56989 5.04014 1.49989 5.36014 1.49989H10.6401C10.9601 1.49989 11.2501 1.56989 11.5101 1.70989C11.7701 1.84989 11.9801 2.05989 12.1401 2.33989L12.8601 3.59989L12.5001 3.83989C12.0201 4.15989 11.5001 4.31989 10.9401 4.31989H5.06014C4.50014 4.31989 3.98014 4.15989 3.50014 3.83989L3.14014 3.59989L3.86014 2.33989ZM14.7801 9.95989C14.7801 10.0799 14.7201 10.1999 14.6001 10.3199C14.4801 10.4399 14.3401 10.4999 14.1801 10.4999H13.0401C12.9201 10.4999 12.8001 10.4399 12.6801 10.3199C12.5601 10.1999 12.5001 10.0799 12.5001 9.95989V9.35989C12.5001 9.19989 12.4501 9.06989 12.3501 8.96989C12.2501 8.86989 12.1201 8.81989 11.9601 8.81989H4.04014C3.88014 8.81989 3.75014 8.86989 3.65014 8.96989C3.55014 9.06989 3.50014 9.19989 3.50014 9.35989V9.95989C3.50014 10.0799 3.44014 10.1999 3.32014 10.3199C3.20014 10.4399 3.08014 10.4999 2.96014 10.4999H1.82014C1.66014 10.4999 1.52014 10.4399 1.40014 10.3199C1.28014 10.1999 1.22014 10.0799 1.22014 9.95989V7.13989C1.26014 6.49989 1.46014 5.93989 1.82014 5.45989L2.48014 4.49989L2.90014 4.79989C3.58014 5.23989 4.30014 5.45989 5.06014 5.45989H10.9401C11.7001 5.45989 12.4201 5.23989 13.1001 4.79989L13.5201 4.49989L14.1801 5.45989C14.5401 5.93989 14.7201 6.49989 14.7201 7.13989V9.95989H14.7801ZM12.5001 7.13989C12.5001 7.29989 12.5501 7.42989 12.6501 7.52989C12.7501 7.62989 12.8801 7.67989 13.0401 7.67989C13.2001 7.67989 13.3401 7.62989 13.4601 7.52989C13.5801 7.42989 13.6401 7.29989 13.6401 7.13989C13.6401 6.97989 13.5801 6.83989 13.4601 6.71989C13.3401 6.59989 13.2001 6.53989 13.0401 6.53989C12.8801 6.53989 12.7501 6.59989 12.6501 6.71989C12.5501 6.83989 12.5001 6.97989 12.5001 7.13989ZM2.36014 7.13989C2.36014 7.29989 2.42014 7.42989 2.54014 7.52989C2.66014 7.62989 2.80014 7.67989 2.96014 7.67989C3.12014 7.67989 3.25014 7.62989 3.35014 7.52989C3.45014 7.42989 3.50014 7.29989 3.50014 7.13989C3.50014 6.97989 3.45014 6.83989 3.35014 6.71989C3.25014 6.59989 3.12014 6.53989 2.96014 6.53989C2.80014 6.53989 2.66014 6.59989 2.54014 6.71989C2.42014 6.83989 2.36014 6.97989 2.36014 7.13989Z" fill="#050B20"/>
</svg>
