<svg width="18" height="19" viewBox="0 0 18 19" fill="none" xmlns="http://www.w3.org/2000/svg">
<path d="M14.52 1.59997H13.86V0.939972C13.86 0.739971 13.79 0.569971 13.65 0.429972C13.51 0.28997 13.34 0.219971 13.14 0.219971C12.94 0.219971 12.77 0.28997 12.63 0.429972C12.49 0.569971 12.42 0.739971 12.42 0.939972V1.59997H5.58V0.939972C5.58 0.739971 5.51 0.569971 5.37 0.429972C5.23 0.28997 5.06 0.219971 4.86 0.219971C4.66 0.219971 4.49 0.28997 4.35 0.429972C4.21 0.569971 4.14 0.739971 4.14 0.939972V1.59997H3.48C2.84 1.59997 2.26 1.75997 1.74 2.07997C1.22 2.39997 0.8 2.81997 0.48 3.33997C0.16 3.85997 0 4.43997 0 5.07997V14.74C0 15.38 0.16 15.96 0.48 16.48C0.8 17 1.22 17.42 1.74 17.74C2.26 18.06 2.84 18.22 3.48 18.22H14.52C15.16 18.22 15.74 18.06 16.26 17.74C16.78 17.42 17.2 17 17.52 16.48C17.84 15.96 18 15.38 18 14.74V5.07997C18 4.43997 17.84 3.85997 17.52 3.33997C17.2 2.81997 16.78 2.39997 16.26 2.07997C15.74 1.75997 15.16 1.59997 14.52 1.59997ZM3.48 3.03997H4.14V4.35997C4.14 4.55997 4.21 4.72997 4.35 4.86997C4.49 5.00997 4.66 5.07997 4.86 5.07997C5.06 5.07997 5.23 5.00997 5.37 4.86997C5.51 4.72997 5.58 4.55997 5.58 4.35997V3.03997H12.42V4.35997C12.42 4.55997 12.49 4.72997 12.63 4.86997C12.77 5.00997 12.94 5.07997 13.14 5.07997C13.34 5.07997 13.51 5.00997 13.65 4.86997C13.79 4.72997 13.86 4.55997 13.86 4.35997V3.03997H14.52C15.08 3.03997 15.57 3.23997 15.99 3.63997C16.41 4.03997 16.62 4.51997 16.62 5.07997V5.73997H1.38V5.07997C1.38 4.51997 1.59 4.03997 2.01 3.63997C2.43 3.23997 2.92 3.03997 3.48 3.03997ZM14.52 16.84H3.48C2.92 16.84 2.43 16.63 2.01 16.21C1.59 15.79 1.38 15.3 1.38 14.74V7.17997H16.62V14.74C16.62 15.3 16.41 15.79 15.99 16.21C15.57 16.63 15.08 16.84 14.52 16.84ZM6.24 9.93997C6.24 10.14 6.17 10.3 6.03 10.42C5.89 10.54 5.72 10.6 5.52 10.6H4.14C3.94 10.6 3.78 10.54 3.66 10.42C3.54 10.3 3.48 10.14 3.48 9.93997C3.48 9.73997 3.54 9.56997 3.66 9.42997C3.78 9.28997 3.94 9.21997 4.14 9.21997H5.52C5.72 9.21997 5.89 9.28997 6.03 9.42997C6.17 9.56997 6.24 9.73997 6.24 9.93997ZM14.52 9.93997C14.52 10.14 14.46 10.3 14.34 10.42C14.22 10.54 14.06 10.6 13.86 10.6H12.48C12.28 10.6 12.11 10.54 11.97 10.42C11.83 10.3 11.76 10.14 11.76 9.93997C11.76 9.73997 11.83 9.56997 11.97 9.42997C12.11 9.28997 12.28 9.21997 12.48 9.21997H13.86C14.06 9.21997 14.22 9.28997 14.34 9.42997C14.46 9.56997 14.52 9.73997 14.52 9.93997ZM10.38 9.93997C10.38 10.14 10.31 10.3 10.17 10.42C10.03 10.54 9.86 10.6 9.66 10.6H8.28C8.12 10.6 7.97 10.54 7.83 10.42C7.69 10.3 7.62 10.14 7.62 9.93997C7.62 9.73997 7.69 9.56997 7.83 9.42997C7.97 9.28997 8.12 9.21997 8.28 9.21997H9.66C9.86 9.21997 10.03 9.28997 10.17 9.42997C10.31 9.56997 10.38 9.73997 10.38 9.93997ZM6.24 14.08C6.24 14.28 6.17 14.45 6.03 14.59C5.89 14.73 5.72 14.8 5.52 14.8H4.14C3.94 14.8 3.78 14.73 3.66 14.59C3.54 14.45 3.48 14.28 3.48 14.08C3.48 13.88 3.54 13.71 3.66 13.57C3.78 13.43 3.94 13.36 4.14 13.36H5.52C5.72 13.36 5.89 13.43 6.03 13.57C6.17 13.71 6.24 13.88 6.24 14.08ZM14.52 14.08C14.52 14.28 14.46 14.45 14.34 14.59C14.22 14.73 14.06 14.8 13.86 14.8H12.48C12.28 14.8 12.11 14.73 11.97 14.59C11.83 14.45 11.76 14.28 11.76 14.08C11.76 13.88 11.83 13.71 11.97 13.57C12.11 13.43 12.28 13.36 12.48 13.36H13.86C14.06 13.36 14.22 13.43 14.34 13.57C14.46 13.71 14.52 13.88 14.52 14.08ZM10.38 14.08C10.38 14.28 10.31 14.45 10.17 14.59C10.03 14.73 9.86 14.8 9.66 14.8H8.28C8.12 14.8 7.97 14.73 7.83 14.59C7.69 14.45 7.62 14.28 7.62 14.08C7.62 13.88 7.69 13.71 7.83 13.57C7.97 13.43 8.12 13.36 8.28 13.36H9.66C9.86 13.36 10.03 13.43 10.17 13.57C10.31 13.71 10.38 13.88 10.38 14.08Z" fill="#405FF2"/>
</svg>
