<svg width="10" height="13" viewBox="0 0 10 13" fill="none" xmlns="http://www.w3.org/2000/svg">
<path d="M3.4002 5.85C3.29353 5.85 3.2002 5.81 3.1202 5.73C3.0402 5.65 3.0002 5.55667 3.0002 5.45V4.25C2.97353 4.09 3.03353 3.96333 3.1802 3.87C3.32686 3.77667 3.47353 3.77667 3.6202 3.87C3.76686 3.96333 3.82686 4.09 3.8002 4.25V5.45C3.8002 5.55667 3.7602 5.65 3.6802 5.73C3.6002 5.81 3.50686 5.85 3.4002 5.85ZM5.0002 5.85C4.89353 5.85 4.8002 5.81 4.7202 5.73C4.6402 5.65 4.6002 5.55667 4.6002 5.45V3.85C4.6002 3.74333 4.6402 3.65667 4.7202 3.59C4.8002 3.52333 4.89353 3.49 5.0002 3.49C5.10686 3.49 5.2002 3.52333 5.2802 3.59C5.3602 3.65667 5.4002 3.74333 5.4002 3.85V5.45C5.4002 5.55667 5.3602 5.65 5.2802 5.73C5.2002 5.81 5.10686 5.85 5.0002 5.85ZM6.60019 5.85C6.49353 5.85 6.4002 5.81 6.3202 5.73C6.2402 5.65 6.2002 5.55667 6.2002 5.45V3.05C6.17353 2.89 6.23353 2.76333 6.3802 2.67C6.52686 2.57667 6.67353 2.57667 6.8202 2.67C6.96686 2.76333 7.02686 2.89 7.0002 3.05V5.45C7.0002 5.55667 6.9602 5.65 6.8802 5.73C6.8002 5.81 6.70686 5.85 6.60019 5.85ZM8.2002 12.25H1.8002C1.34686 12.25 0.966862 12.0967 0.660195 11.79C0.353529 11.4833 0.200195 11.1033 0.200195 10.65V3.41C0.200195 3.11667 0.260195 2.83 0.380195 2.55C0.500195 2.27 0.680195 2.03667 0.920195 1.85L2.3202 0.73C2.66686 0.41 3.0802 0.25 3.5602 0.25H8.2002C8.65353 0.25 9.03353 0.403334 9.34019 0.71C9.64686 1.01667 9.80019 1.39667 9.80019 1.85V10.65C9.80019 11.1033 9.64686 11.4833 9.34019 11.79C9.03353 12.0967 8.65353 12.25 8.2002 12.25ZM3.5602 1.05C3.29353 1.05 3.05353 1.14333 2.8402 1.33L1.4402 2.49C1.14686 2.73 1.0002 3.03667 1.0002 3.41V10.65C1.0002 10.8633 1.0802 11.05 1.2402 11.21C1.4002 11.37 1.58686 11.45 1.8002 11.45H8.2002C8.41353 11.45 8.60019 11.37 8.76019 11.21C8.9202 11.05 9.0002 10.8633 9.0002 10.65V1.85C9.0002 1.63667 8.9202 1.45 8.76019 1.29C8.60019 1.13 8.41353 1.05 8.2002 1.05H3.5602ZM7.4002 9.85H2.6002C2.4402 9.87667 2.31353 9.81667 2.2202 9.67C2.12686 9.52333 2.12686 9.37667 2.2202 9.23C2.31353 9.08333 2.4402 9.02333 2.6002 9.05H7.4002C7.56019 9.02333 7.68686 9.08333 7.7802 9.23C7.87353 9.37667 7.87353 9.52333 7.7802 9.67C7.68686 9.81667 7.56019 9.87667 7.4002 9.85ZM7.4002 7.85H2.6002C2.49353 7.85 2.40686 7.81 2.3402 7.73C2.27353 7.65 2.2402 7.55667 2.2402 7.45C2.2402 7.34333 2.27353 7.25 2.3402 7.17C2.40686 7.09 2.49353 7.05 2.6002 7.05H7.4002C7.56019 7.02333 7.68686 7.08333 7.7802 7.23C7.87353 7.37667 7.87353 7.52333 7.7802 7.67C7.68686 7.81667 7.56019 7.87667 7.4002 7.85Z" fill="#050B20"/>
</svg>
