<svg width="17" height="18" viewBox="0 0 17 18" fill="none" xmlns="http://www.w3.org/2000/svg">
<path d="M8.5001 10.14C5.7801 10.14 3.7001 10.76 2.2601 12C0.820098 13.24 0.100098 15.02 0.100098 17.34C0.100098 17.54 0.170098 17.7 0.310098 17.82C0.450098 17.94 0.600098 18 0.760098 18H16.2401C16.4001 18 16.5501 17.94 16.6901 17.82C16.8301 17.7 16.9001 17.54 16.9001 17.34C16.9001 15.02 16.1801 13.24 14.7401 12C13.3001 10.76 11.2201 10.14 8.5001 10.14ZM1.4801 16.68C1.7201 13.2 4.0601 11.46 8.5001 11.46C12.9401 11.46 15.2801 13.2 15.5201 16.68H1.4801ZM8.5001 0C7.7001 0 6.9601 0.190001 6.2801 0.57C5.6001 0.950001 5.0701 1.48 4.6901 2.16C4.3101 2.84 4.1201 3.6 4.1201 4.44C4.1201 5.28 4.3201 6.07 4.7201 6.81C5.1201 7.55 5.6501 8.13 6.3101 8.55C6.9701 8.97 7.7001 9.18 8.5001 9.18C9.3001 9.18 10.0301 8.97 10.6901 8.55C11.3501 8.13 11.8801 7.55 12.2801 6.81C12.6801 6.07 12.8801 5.28 12.8801 4.44C12.8801 3.6 12.6901 2.84 12.3101 2.16C11.9301 1.48 11.4001 0.950001 10.7201 0.57C10.0401 0.190001 9.3001 0 8.5001 0ZM8.5001 7.86C7.6601 7.86 6.9401 7.53 6.3401 6.87C5.7401 6.21 5.4401 5.41 5.4401 4.47C5.4401 3.53 5.7301 2.77 6.3101 2.19C6.8901 1.61 7.6201 1.32 8.5001 1.32C9.3801 1.32 10.1101 1.62 10.6901 2.22C11.2701 2.82 11.5601 3.58 11.5601 4.5C11.5601 5.42 11.2601 6.21 10.6601 6.87C10.0601 7.53 9.3401 7.86 8.5001 7.86Z" fill="#050B20"/>
</svg>
