<svg width="19" height="13" viewBox="0 0 19 13" fill="none" xmlns="http://www.w3.org/2000/svg">
<path d="M17.96 4.46993H16.28C16.12 4.46993 15.98 4.52993 15.86 4.64993C15.74 4.76993 15.68 4.90993 15.68 5.06993V5.60993H15.14V5.06993C15.14 4.90993 15.08 4.77993 14.96 4.67993C14.84 4.57993 14.7 4.52993 14.54 4.52993H13.7L12.14 2.96993C12.1 2.92993 12.04 2.88993 11.96 2.84993C11.88 2.80993 11.82 2.78993 11.78 2.78993H10.04V1.70993H11.18C11.34 1.70993 11.48 1.64993 11.6 1.52993C11.72 1.40993 11.78 1.26993 11.78 1.10993C11.78 0.949932 11.72 0.819932 11.6 0.719932C11.48 0.619932 11.34 0.569932 11.18 0.569932H6.14C5.98 0.569932 5.84 0.619932 5.72 0.719932C5.6 0.819932 5.54 0.949932 5.54 1.10993C5.54 1.26993 5.6 1.40993 5.72 1.52993C5.84 1.64993 5.98 1.70993 6.14 1.70993H7.28V2.78993H5.54L5.3 2.90993L5.12 3.02993L4.16 4.46993H2.78C2.62 4.46993 2.48 4.52993 2.36 4.64993C2.24 4.76993 2.18 4.90993 2.18 5.06993V6.74993H1.64V5.06993C1.64 4.90993 1.58 4.77993 1.46 4.67993C1.34 4.57993 1.2 4.51993 1.04 4.49993C0.88 4.47993 0.75 4.52993 0.65 4.64993C0.55 4.76993 0.5 4.90993 0.5 5.06993V10.1099C0.5 10.2699 0.55 10.4099 0.65 10.5299C0.75 10.6499 0.88 10.7099 1.04 10.7099C1.2 10.7099 1.34 10.6499 1.46 10.5299C1.58 10.4099 1.64 10.2699 1.64 10.1099V7.88993H2.18V10.1099C2.18 10.2699 2.24 10.4099 2.36 10.5299C2.48 10.6499 2.6 10.7099 2.72 10.7099H4.1L5.06 12.6299L5.18 12.7499L5.3 12.8699L5.54 12.9299H12.32C12.4 12.9299 12.48 12.9099 12.56 12.8699L12.74 12.7499L14.84 10.1099H15.68V10.7099C15.68 10.8699 15.74 10.9999 15.86 11.0999C15.98 11.1999 16.12 11.2499 16.28 11.2499H17.96C18.12 11.2499 18.25 11.1999 18.35 11.0999C18.45 10.9999 18.5 10.8699 18.5 10.7099V5.06993C18.5 4.90993 18.45 4.77993 18.35 4.67993C18.25 4.57993 18.12 4.52993 17.96 4.52993V4.46993ZM17.36 10.1099H16.82V9.56993C16.82 9.40993 16.76 9.26993 16.64 9.14993C16.52 9.02993 16.4 8.96993 16.28 8.96993L14.54 9.02993L14.3 9.08993L14.12 9.20993L12.02 11.7899H5.9L4.94 9.80993L4.82 9.68993L4.52 9.56993H3.32V5.60993H4.46H4.64L4.82 5.48993L5.84 3.92993H7.82C7.98 3.92993 8.11 3.87993 8.21 3.77993C8.31 3.67993 8.36 3.54993 8.36 3.38993V1.70993H8.96V3.38993C8.96 3.54993 9.01 3.67993 9.11 3.77993C9.21 3.87993 9.34 3.92993 9.5 3.92993H11.54L13.04 5.42993C13.08 5.50993 13.14 5.55993 13.22 5.57993C13.3 5.59993 13.38 5.60993 13.46 5.60993H14V6.20993C14 6.36993 14.05 6.49993 14.15 6.59993C14.25 6.69993 14.38 6.74993 14.54 6.74993H16.28C16.4 6.74993 16.52 6.69993 16.64 6.59993C16.76 6.49993 16.82 6.36993 16.82 6.20993V5.60993H17.36V10.1099ZM11.48 5.72993C11.36 5.64993 11.23 5.61993 11.09 5.63993C10.95 5.65993 10.82 5.72993 10.7 5.84993L8.42 9.32993L7.04 8.24993C6.92 8.16993 6.78 8.13993 6.62 8.15993C6.46 8.17993 6.33 8.24993 6.23 8.36993C6.13 8.48993 6.09 8.62993 6.11 8.78993C6.13 8.94993 6.2 9.06993 6.32 9.14993L8.18 10.5899C8.3 10.6699 8.42 10.7099 8.54 10.7099H8.6C8.76 10.6699 8.88 10.5699 8.96 10.4099L11.66 6.50993C11.74 6.38993 11.77 6.24993 11.75 6.08993C11.73 5.92993 11.64 5.80993 11.48 5.72993Z" fill="#050B20"/>
</svg>
