<svg width="40" height="41" viewBox="0 0 40 41" fill="none" xmlns="http://www.w3.org/2000/svg">
<rect y="0.75" width="40" height="40" rx="20" fill="#405FF2" fill-opacity="0.1"/>
<path fill-rule="evenodd" clip-rule="evenodd" d="M20 14.5625C17.0084 14.5625 14.5625 17.0443 14.5625 20.1316C14.5625 21.6884 15.1852 23.4125 16.2041 24.7438C17.2256 26.0787 18.5776 26.9375 20 26.9375C21.4224 26.9375 22.7744 26.0787 23.796 24.7438C24.8148 23.4125 25.4375 21.6884 25.4375 20.1316C25.4375 17.0443 22.9916 14.5625 20 14.5625ZM13.4375 20.1316C13.4375 16.4461 16.3642 13.4375 20 13.4375C23.6358 13.4375 26.5625 16.4461 26.5625 20.1316C26.5625 21.9613 25.8421 23.9214 24.6894 25.4275C23.5393 26.9303 21.8913 28.0625 20 28.0625C18.1087 28.0625 16.4607 26.9303 15.3106 25.4275C14.158 23.9214 13.4375 21.9613 13.4375 20.1316Z" fill="#405FF2"/>
<path fill-rule="evenodd" clip-rule="evenodd" d="M17.5625 19.625C17.5625 18.2788 18.6538 17.1875 20 17.1875C21.3462 17.1875 22.4375 18.2788 22.4375 19.625C22.4375 20.9712 21.3462 22.0625 20 22.0625C18.6538 22.0625 17.5625 20.9712 17.5625 19.625ZM20 18.3125C19.2751 18.3125 18.6875 18.9001 18.6875 19.625C18.6875 20.3499 19.2751 20.9375 20 20.9375C20.7249 20.9375 21.3125 20.3499 21.3125 19.625C21.3125 18.9001 20.7249 18.3125 20 18.3125Z" fill="#405FF2"/>
</svg>
