<svg width="18" height="19" viewBox="0 0 18 19" fill="none" xmlns="http://www.w3.org/2000/svg">
<g clip-path="url(#clip0_1_659)">
<path d="M18 11.37C18 13.41 17.4 15.23 16.2 16.83C16.08 16.99 15.92 17.08 15.72 17.1C15.52 17.12 15.34 17.07 15.18 16.95C15.02 16.83 14.93 16.68 14.91 16.5C14.89 16.32 14.94 16.15 15.06 15.99C16.1 14.63 16.62 13.09 16.62 11.37C16.62 10.01 16.28 8.74996 15.6 7.58996C14.92 6.42996 13.99 5.50996 12.81 4.82996C11.63 4.14996 10.36 3.80996 9 3.80996C7.64 3.80996 6.37 4.14996 5.19 4.82996C4.01 5.50996 3.08 6.42996 2.4 7.58996C1.72 8.74996 1.38 10.01 1.38 11.37C1.38 13.09 1.9 14.63 2.94 15.99C3.06 16.15 3.11 16.32 3.09 16.5C3.07 16.68 2.98 16.83 2.82 16.95C2.66 17.07 2.48 17.12 2.28 17.1C2.08 17.08 1.92 16.99 1.8 16.83C0.6 15.23 0 13.41 0 11.37C0 9.76996 0.4 8.27996 1.2 6.89996C2 5.51996 3.09 4.42996 4.47 3.62996C5.85 2.82996 7.36 2.42996 9 2.42996C10.64 2.42996 12.15 2.82996 13.53 3.62996C14.91 4.42996 16 5.51996 16.8 6.89996C17.6 8.27996 18 9.76996 18 11.37ZM13.44 7.16996C13.6 7.28996 13.68 7.44996 13.68 7.64996C13.68 7.84996 13.6 8.00996 13.44 8.12996L11.16 10.47C11.36 10.83 11.46 11.21 11.46 11.61C11.46 12.29 11.22 12.87 10.74 13.35C10.26 13.83 9.68 14.07 9 14.07C8.32 14.07 7.74 13.83 7.26 13.35C6.78 12.87 6.54 12.29 6.54 11.61C6.54 10.93 6.78 10.35 7.26 9.86996C7.74 9.38996 8.32 9.14996 9 9.14996C9.4 9.14996 9.78 9.24996 10.14 9.44996L12.48 7.16996C12.6 7.00996 12.76 6.92996 12.96 6.92996C13.16 6.92996 13.32 7.00996 13.44 7.16996ZM10.08 11.61C10.08 11.33 9.97 11.09 9.75 10.89C9.53 10.69 9.28 10.59 9 10.59C8.72 10.59 8.47 10.69 8.25 10.89C8.03 11.09 7.92 11.33 7.92 11.61C7.92 11.89 8.03 12.14 8.25 12.36C8.47 12.58 8.72 12.69 9 12.69C9.28 12.69 9.53 12.58 9.75 12.36C9.97 12.14 10.08 11.89 10.08 11.61Z" fill="#050B20"/>
</g>
<defs>
<clipPath id="clip0_1_659">
<rect width="18" height="18" fill="white" transform="matrix(1 0 0 -1 0 18.75)"/>
</clipPath>
</defs>
</svg>
