<svg width="19" height="19" viewBox="0 0 19 19" fill="none" xmlns="http://www.w3.org/2000/svg">
<g clip-path="url(#clip0_1_604)">
<path d="M18.9199 10.8399C18.9199 12.8799 18.3199 14.6999 17.1199 16.2999C16.9999 16.4599 16.8399 16.5499 16.6399 16.5699C16.4399 16.5899 16.2599 16.5399 16.0999 16.4199C15.9399 16.2999 15.8499 16.1499 15.8299 15.9699C15.8099 15.7899 15.8599 15.6199 15.9799 15.4599C17.0199 14.0999 17.5399 12.5599 17.5399 10.8399C17.5399 9.47993 17.1999 8.21993 16.5199 7.05993C15.8399 5.89993 14.9099 4.97993 13.7299 4.29993C12.5499 3.61993 11.2799 3.27993 9.91992 3.27993C8.55992 3.27993 7.28992 3.61993 6.10992 4.29993C4.92992 4.97993 3.99992 5.89993 3.31992 7.05993C2.63992 8.21993 2.29992 9.47993 2.29992 10.8399C2.29992 12.5599 2.81992 14.0999 3.85992 15.4599C3.97992 15.6199 4.02992 15.7899 4.00992 15.9699C3.98992 16.1499 3.89992 16.2999 3.73992 16.4199C3.57992 16.5399 3.39992 16.5899 3.19992 16.5699C2.99992 16.5499 2.83992 16.4599 2.71992 16.2999C1.51992 14.6999 0.919922 12.8799 0.919922 10.8399C0.919922 9.23993 1.31992 7.74993 2.11992 6.36993C2.91992 4.98993 4.00992 3.89993 5.38992 3.09993C6.76992 2.29993 8.27992 1.89993 9.91992 1.89993C11.5599 1.89993 13.0699 2.29993 14.4499 3.09993C15.8299 3.89993 16.9199 4.98993 17.7199 6.36993C18.5199 7.74993 18.9199 9.23993 18.9199 10.8399ZM14.3599 6.63993C14.5199 6.75993 14.5999 6.91993 14.5999 7.11993C14.5999 7.31993 14.5199 7.47993 14.3599 7.59993L12.0799 9.93993C12.2799 10.2999 12.3799 10.6799 12.3799 11.0799C12.3799 11.7599 12.1399 12.3399 11.6599 12.8199C11.1799 13.2999 10.5999 13.5399 9.91992 13.5399C9.23992 13.5399 8.65992 13.2999 8.17992 12.8199C7.69992 12.3399 7.45992 11.7599 7.45992 11.0799C7.45992 10.3999 7.69992 9.81993 8.17992 9.33993C8.65992 8.85993 9.23992 8.61993 9.91992 8.61993C10.3199 8.61993 10.6999 8.71993 11.0599 8.91993L13.3999 6.63993C13.5199 6.47993 13.6799 6.39993 13.8799 6.39993C14.0799 6.39993 14.2399 6.47993 14.3599 6.63993ZM10.9999 11.0799C10.9999 10.7999 10.8899 10.5599 10.6699 10.3599C10.4499 10.1599 10.1999 10.0599 9.91992 10.0599C9.63992 10.0599 9.38992 10.1599 9.16992 10.3599C8.94992 10.5599 8.83992 10.7999 8.83992 11.0799C8.83992 11.3599 8.94992 11.6099 9.16992 11.8299C9.38992 12.0499 9.63992 12.1599 9.91992 12.1599C10.1999 12.1599 10.4499 12.0499 10.6699 11.8299C10.8899 11.6099 10.9999 11.3599 10.9999 11.0799Z" fill="#405FF2"/>
</g>
<defs>
<clipPath id="clip0_1_604">
<rect width="18" height="18" fill="white" transform="matrix(1 0 0 -1 0.919922 18.22)"/>
</clipPath>
</defs>
</svg>
