<svg width="18" height="17" viewBox="0 0 18 17" fill="none" xmlns="http://www.w3.org/2000/svg">
<path d="M7.46996 16.8699C6.90996 16.8699 6.44996 16.6899 6.08996 16.3299L0.809961 11.0499C0.409961 10.6499 0.209961 10.1799 0.209961 9.63987C0.209961 9.09987 0.409961 8.62987 0.809961 8.22987L7.88996 1.14987C8.64996 0.389874 9.56996 0.00987434 10.65 0.00987434H15.15C15.71 0.00987434 16.18 0.209875 16.56 0.609875C16.94 1.00987 17.13 1.46987 17.13 1.98987V6.48987C17.13 7.56987 16.75 8.46987 15.99 9.18987L8.84996 16.3299C8.48996 16.6899 8.02996 16.8699 7.46996 16.8699ZM10.65 1.32987C9.92996 1.32987 9.32996 1.58987 8.84996 2.10987L1.76996 9.18987C1.60996 9.30987 1.52996 9.45987 1.52996 9.63987C1.52996 9.81987 1.60996 9.98987 1.76996 10.1499L6.98996 15.3699C7.10996 15.5299 7.26996 15.6099 7.46996 15.6099C7.66996 15.6099 7.82996 15.5299 7.94996 15.3699L15.03 8.28987C15.55 7.80987 15.81 7.20987 15.81 6.48987V1.98987C15.81 1.82987 15.74 1.67987 15.6 1.53987C15.46 1.39987 15.31 1.32987 15.15 1.32987H10.65ZM12.33 6.72987C11.81 6.72987 11.35 6.52987 10.95 6.12987C10.55 5.72987 10.35 5.25987 10.35 4.71987C10.35 4.17987 10.55 3.71987 10.95 3.33987C11.35 2.95987 11.82 2.76987 12.36 2.76987C12.9 2.76987 13.36 2.95987 13.74 3.33987C14.12 3.71987 14.31 4.17987 14.31 4.71987C14.31 5.25987 14.12 5.72987 13.74 6.12987C13.36 6.52987 12.89 6.72987 12.33 6.72987ZM12.33 4.08987C12.17 4.08987 12.02 4.14987 11.88 4.26987C11.74 4.38987 11.67 4.53987 11.67 4.71987C11.67 4.89987 11.74 5.05987 11.88 5.19987C12.02 5.33987 12.18 5.40987 12.36 5.40987C12.54 5.40987 12.69 5.33987 12.81 5.19987C12.93 5.05987 12.99 4.89987 12.99 4.71987C12.99 4.53987 12.93 4.38987 12.81 4.26987C12.69 4.14987 12.53 4.08987 12.33 4.08987Z" fill="white"/>
</svg>
