<svg width="18" height="19" viewBox="0 0 18 19" fill="none" xmlns="http://www.w3.org/2000/svg">
<path d="M10.5599 3.57997C10.5599 3.41997 10.5099 3.28997 10.4099 3.18997C10.3099 3.08997 10.1799 3.03997 10.0199 3.03997H4.37992C4.21992 3.03997 4.08992 3.08997 3.98992 3.18997C3.88992 3.28997 3.83992 3.41997 3.83992 3.57997V8.07997C3.83992 8.23997 3.88992 8.37997 3.98992 8.49997C4.08992 8.61997 4.21992 8.67997 4.37992 8.67997H10.0199C10.1799 8.67997 10.3099 8.61997 10.4099 8.49997C10.5099 8.37997 10.5599 8.23997 10.5599 8.07997V3.57997ZM9.41992 7.53997H4.91992V4.17997H9.41992V7.53997ZM17.0399 4.17997L14.7599 3.09997C14.6399 3.01997 14.4999 2.99997 14.3399 3.03997C14.1799 3.07997 14.0699 3.16997 14.0099 3.30997C13.9499 3.44997 13.9399 3.59997 13.9799 3.75997C14.0199 3.91997 14.1199 4.01997 14.2799 4.05997L15.1199 4.53997L15.0599 4.71997C15.0599 5.07997 15.1699 5.39997 15.3899 5.67997C15.6099 5.95997 15.8799 6.15997 16.1999 6.27997V13.12C16.1999 13.28 16.1399 13.42 16.0199 13.54C15.8999 13.66 15.7699 13.72 15.6299 13.72C15.4899 13.72 15.3599 13.66 15.2399 13.54C15.1199 13.42 15.0599 13.28 15.0599 13.12V8.61997C15.0599 7.97997 14.8299 7.39997 14.3699 6.87997C13.9099 6.35997 13.3999 6.03997 12.8399 5.91997V2.43997C12.8399 1.83997 12.6199 1.31997 12.1799 0.879971C11.7399 0.439972 11.2199 0.219971 10.6199 0.219971H3.83992C3.23992 0.219971 2.70992 0.439972 2.24992 0.879971C1.78992 1.31997 1.55992 1.83997 1.55992 2.43997V15.04L0.779922 15.46C0.539922 15.58 0.419922 15.74 0.419922 15.94V17.62C0.419922 17.78 0.479922 17.92 0.599922 18.04C0.719922 18.16 0.859922 18.22 1.01992 18.22H13.3799C13.5399 18.22 13.6699 18.16 13.7699 18.04C13.8699 17.92 13.9199 17.78 13.9199 17.62V15.94C13.9199 15.74 13.8199 15.58 13.6199 15.46L12.8399 15.04V7.05997C13.1199 7.17997 13.3699 7.38997 13.5899 7.68997C13.8099 7.98997 13.9199 8.29997 13.9199 8.61997V13.12C13.9199 13.6 14.0899 14.01 14.4299 14.35C14.7699 14.69 15.1699 14.86 15.6299 14.86C16.0899 14.86 16.4899 14.69 16.8299 14.35C17.1699 14.01 17.3399 13.6 17.3399 13.12V4.71997C17.3399 4.47997 17.2399 4.29997 17.0399 4.17997ZM12.8399 17.08H1.55992V16.3L2.39992 15.88C2.59992 15.8 2.69992 15.64 2.69992 15.4V2.43997C2.69992 2.15997 2.80992 1.90997 3.02992 1.68997C3.24992 1.46997 3.51992 1.35997 3.83992 1.35997H10.6199C10.8999 1.35997 11.1499 1.46997 11.3699 1.68997C11.5899 1.90997 11.6999 2.15997 11.6999 2.43997V15.4C11.6999 15.64 11.7999 15.8 11.9999 15.88L12.8399 16.3V17.08Z" fill="#405FF2"/>
</svg>
