<svg width="41" height="41" viewBox="0 0 41 41" fill="none" xmlns="http://www.w3.org/2000/svg">
<rect x="0.529785" y="0.75" width="40" height="40" rx="20" fill="#405FF2" fill-opacity="0.1"/>
<path d="M27.8076 19.3574C27.5249 19.3574 27.2819 19.1452 27.2496 18.858C26.9646 16.326 24.9974 14.361 22.4654 14.0797C22.1571 14.0452 21.9344 13.7677 21.9689 13.4587C22.0026 13.1505 22.2794 12.9202 22.5899 12.9622C25.6476 13.3012 28.0236 15.6742 28.3671 18.732C28.4024 19.041 28.1796 19.3192 27.8714 19.3537C27.8504 19.3559 27.8286 19.3574 27.8076 19.3574Z" fill="#405FF2"/>
<path d="M25.152 19.3657C24.888 19.3657 24.6533 19.1797 24.6008 18.9112C24.3848 17.8012 23.529 16.9454 22.4205 16.7302C22.1153 16.6709 21.9165 16.3762 21.9758 16.0709C22.035 15.7657 22.3373 15.5669 22.635 15.6262C24.1958 15.9292 25.401 17.1337 25.7048 18.6952C25.764 19.0012 25.5653 19.2959 25.2608 19.3552C25.224 19.3619 25.188 19.3657 25.152 19.3657Z" fill="#405FF2"/>
<path fill-rule="evenodd" clip-rule="evenodd" d="M17.1415 24.0802C20.6763 27.6157 23.0298 28.5427 24.5163 28.5427C25.2498 28.5427 25.7733 28.317 26.1221 28.0665C26.1378 28.0575 27.7518 27.0705 28.0346 25.5765C28.1681 24.8752 27.9731 24.1815 27.4721 23.5695C25.4081 21.0637 24.3566 21.2977 23.1956 21.8625C22.4823 22.212 21.9191 22.4835 20.3283 20.8942C18.7385 19.3037 19.0127 18.7404 19.3599 18.0273C19.9254 16.8663 20.1581 15.8145 17.6515 13.749C17.041 13.2503 16.3518 13.0553 15.6513 13.1865C14.179 13.4618 13.1875 15.0495 13.1875 15.0495C12.3985 16.1573 11.863 18.8025 17.1415 24.0802ZM15.8808 14.2875C15.9468 14.277 16.012 14.271 16.0765 14.271C16.3705 14.271 16.654 14.3858 16.9368 14.6183C18.958 16.2833 18.7023 16.8083 18.3483 17.535C17.8165 18.6278 17.5383 19.6942 19.5326 21.69C21.5291 23.6857 22.5963 23.4075 23.6876 22.8742L23.6894 22.8733C24.4152 22.5205 24.94 22.2655 26.6028 24.2842C26.8871 24.6307 26.9958 24.9772 26.9343 25.3425C26.7926 26.1825 25.8161 26.9347 25.5206 27.1177C24.4623 27.8722 21.9146 27.2625 17.9365 23.2852C13.96 19.308 13.3495 16.7603 14.131 15.6615C14.287 15.4073 15.0423 14.4293 15.8808 14.2875Z" fill="#405FF2"/>
</svg>
