<svg width="11" height="13" viewBox="0 0 11 13" fill="none" xmlns="http://www.w3.org/2000/svg">
<path d="M9.02971 12.25C8.78971 12.25 8.56304 12.1833 8.34971 12.05L5.74971 10.41C5.66971 10.3567 5.58971 10.3567 5.50971 10.41L2.90971 12.05C2.66971 12.21 2.40304 12.27 2.10971 12.23C1.81637 12.19 1.56304 12.0767 1.34971 11.89C1.08304 11.65 0.949707 11.3433 0.949707 10.97V1.53C0.949707 1.18333 1.07637 0.883333 1.32971 0.63C1.58304 0.376667 1.88304 0.25 2.22971 0.25H9.02971C9.37637 0.25 9.67637 0.376667 9.92971 0.63C10.183 0.883333 10.3097 1.18333 10.3097 1.53V10.97C10.3097 11.3167 10.183 11.6167 9.92971 11.87C9.67637 12.1233 9.37637 12.25 9.02971 12.25ZM5.62971 9.33C5.86971 9.33 6.09637 9.39667 6.30971 9.53L8.90971 11.17C8.93637 11.1967 8.97637 11.21 9.02971 11.21C9.08304 11.21 9.12971 11.19 9.16971 11.15C9.20971 11.11 9.22971 11.05 9.22971 10.97V1.53C9.22971 1.45 9.20971 1.39 9.16971 1.35C9.12971 1.31 9.08304 1.29 9.02971 1.29H2.22971C2.17637 1.29 2.12971 1.31 2.08971 1.35C2.04971 1.39 2.02971 1.45 2.02971 1.53V10.97C2.02971 11.05 2.06304 11.1167 2.12971 11.17C2.19637 11.2233 2.26971 11.2233 2.34971 11.17L4.94971 9.53C5.16304 9.39667 5.38971 9.33 5.62971 9.33Z" fill="#050B20"/>
</svg>
