<svg width="18" height="16" viewBox="0 0 18 16" fill="none" xmlns="http://www.w3.org/2000/svg">
<path d="M2.99996 0.680069C2.43996 0.680069 1.95996 0.880069 1.55996 1.28007C1.15996 1.68007 0.959961 2.17007 0.959961 2.75007C0.959961 3.33007 1.15996 3.82007 1.55996 4.22007C1.95996 4.62007 2.43996 4.82007 2.99996 4.82007C3.55996 4.82007 4.03996 4.62007 4.43996 4.22007C4.83996 3.82007 5.03996 3.33007 5.03996 2.75007C5.03996 2.17007 4.83996 1.68007 4.43996 1.28007C4.03996 0.880069 3.55996 0.680069 2.99996 0.680069ZM2.99996 1.82007C3.23996 1.82007 3.45996 1.91007 3.65996 2.09007C3.85996 2.27007 3.95996 2.49007 3.95996 2.75007C3.95996 3.01007 3.85996 3.23007 3.65996 3.41007C3.45996 3.59007 3.23996 3.68007 2.99996 3.68007C2.75996 3.68007 2.53996 3.59007 2.33996 3.41007C2.13996 3.23007 2.03996 3.01007 2.03996 2.75007C2.03996 2.49007 2.13996 2.27007 2.33996 2.09007C2.53996 1.91007 2.75996 1.82007 2.99996 1.82007ZM2.99996 11.1801C2.43996 11.1801 1.95996 11.3801 1.55996 11.7801C1.15996 12.1801 0.959961 12.6701 0.959961 13.2501C0.959961 13.8301 1.15996 14.3201 1.55996 14.7201C1.95996 15.1201 2.43996 15.3201 2.99996 15.3201C3.55996 15.3201 4.03996 15.1201 4.43996 14.7201C4.83996 14.3201 5.03996 13.8301 5.03996 13.2501C5.03996 12.6701 4.83996 12.1801 4.43996 11.7801C4.03996 11.3801 3.55996 11.1801 2.99996 11.1801ZM2.99996 12.3201C3.23996 12.3201 3.45996 12.4101 3.65996 12.5901C3.85996 12.7701 3.95996 12.9901 3.95996 13.2501C3.95996 13.5101 3.85996 13.7301 3.65996 13.9101C3.45996 14.0901 3.23996 14.1801 2.99996 14.1801C2.75996 14.1801 2.53996 14.0901 2.33996 13.9101C2.13996 13.7301 2.03996 13.5101 2.03996 13.2501C2.03996 12.9901 2.13996 12.7701 2.33996 12.5901C2.53996 12.4101 2.75996 12.3201 2.99996 12.3201ZM8.99996 0.680069C8.43996 0.680069 7.95996 0.880069 7.55996 1.28007C7.15996 1.68007 6.95996 2.17007 6.95996 2.75007C6.95996 3.33007 7.15996 3.82007 7.55996 4.22007C7.95996 4.62007 8.43996 4.82007 8.99996 4.82007C9.55996 4.82007 10.04 4.62007 10.44 4.22007C10.84 3.82007 11.04 3.33007 11.04 2.75007C11.04 2.17007 10.84 1.68007 10.44 1.28007C10.04 0.880069 9.55996 0.680069 8.99996 0.680069ZM8.99996 1.82007C9.23996 1.82007 9.45996 1.91007 9.65996 2.09007C9.85996 2.27007 9.95996 2.49007 9.95996 2.75007C9.95996 3.01007 9.85996 3.23007 9.65996 3.41007C9.45996 3.59007 9.23996 3.68007 8.99996 3.68007C8.75996 3.68007 8.53996 3.59007 8.33996 3.41007C8.13996 3.23007 8.03996 3.01007 8.03996 2.75007C8.03996 2.49007 8.13996 2.27007 8.33996 2.09007C8.53996 1.91007 8.75996 1.82007 8.99996 1.82007ZM8.99996 11.1801C8.43996 11.1801 7.95996 11.3801 7.55996 11.7801C7.15996 12.1801 6.95996 12.6701 6.95996 13.2501C6.95996 13.8301 7.15996 14.3201 7.55996 14.7201C7.95996 15.1201 8.43996 15.3201 8.99996 15.3201C9.55996 15.3201 10.04 15.1201 10.44 14.7201C10.84 14.3201 11.04 13.8301 11.04 13.2501C11.04 12.6701 10.84 12.1801 10.44 11.7801C10.04 11.3801 9.55996 11.1801 8.99996 11.1801ZM8.99996 12.3201C9.23996 12.3201 9.45996 12.4101 9.65996 12.5901C9.85996 12.7701 9.95996 12.9901 9.95996 13.2501C9.95996 13.5101 9.85996 13.7301 9.65996 13.9101C9.45996 14.0901 9.23996 14.1801 8.99996 14.1801C8.75996 14.1801 8.53996 14.0901 8.33996 13.9101C8.13996 13.7301 8.03996 13.5101 8.03996 13.2501C8.03996 12.9901 8.13996 12.7701 8.33996 12.5901C8.53996 12.4101 8.75996 12.3201 8.99996 12.3201ZM15 0.680069C14.44 0.680069 13.96 0.880069 13.56 1.28007C13.16 1.68007 12.96 2.17007 12.96 2.75007C12.96 3.33007 13.16 3.82007 13.56 4.22007C13.96 4.62007 14.44 4.82007 15 4.82007C15.56 4.82007 16.04 4.62007 16.44 4.22007C16.84 3.82007 17.04 3.33007 17.04 2.75007C17.04 2.17007 16.84 1.68007 16.44 1.28007C16.04 0.880069 15.56 0.680069 15 0.680069ZM15 1.82007C15.24 1.82007 15.46 1.91007 15.66 2.09007C15.86 2.27007 15.96 2.49007 15.96 2.75007C15.96 3.01007 15.86 3.23007 15.66 3.41007C15.46 3.59007 15.24 3.68007 15 3.68007C14.76 3.68007 14.54 3.59007 14.34 3.41007C14.14 3.23007 14.04 3.01007 14.04 2.75007C14.04 2.49007 14.14 2.27007 14.34 2.09007C14.54 1.91007 14.76 1.82007 15 1.82007ZM15 11.1801C14.44 11.1801 13.96 11.3801 13.56 11.7801C13.16 12.1801 12.96 12.6701 12.96 13.2501C12.96 13.8301 13.16 14.3201 13.56 14.7201C13.96 15.1201 14.44 15.3201 15 15.3201C15.56 15.3201 16.04 15.1201 16.44 14.7201C16.84 14.3201 17.04 13.8301 17.04 13.2501C17.04 12.6701 16.84 12.1801 16.44 11.7801C16.04 11.3801 15.56 11.1801 15 11.1801ZM15 12.3201C15.24 12.3201 15.46 12.4101 15.66 12.5901C15.86 12.7701 15.96 12.9901 15.96 13.2501C15.96 13.5101 15.86 13.7301 15.66 13.9101C15.46 14.0901 15.24 14.1801 15 14.1801C14.76 14.1801 14.54 14.0901 14.34 13.9101C14.14 13.7301 14.04 13.5101 14.04 13.2501C14.04 12.9901 14.14 12.7701 14.34 12.5901C14.54 12.4101 14.76 12.3201 15 12.3201ZM2.45996 4.22007V11.7201C2.45996 11.8801 2.50996 12.0201 2.60996 12.1401C2.70996 12.2601 2.83996 12.3201 2.99996 12.3201C3.15996 12.3201 3.28996 12.2601 3.38996 12.1401C3.48996 12.0201 3.53996 11.9001 3.53996 11.7801V4.22007C3.53996 4.10007 3.48996 3.98007 3.38996 3.86007C3.28996 3.74007 3.15996 3.68007 2.99996 3.68007C2.83996 3.68007 2.70996 3.74007 2.60996 3.86007C2.50996 3.98007 2.45996 4.10007 2.45996 4.22007ZM8.45996 4.22007V11.7201C8.45996 11.8801 8.50996 12.0201 8.60996 12.1401C8.70996 12.2601 8.83996 12.3201 8.99996 12.3201C9.15996 12.3201 9.28996 12.2601 9.38996 12.1401C9.48996 12.0201 9.53996 11.9001 9.53996 11.7801V4.22007C9.53996 4.10007 9.48996 3.98007 9.38996 3.86007C9.28996 3.74007 9.15996 3.68007 8.99996 3.68007C8.83996 3.68007 8.70996 3.74007 8.60996 3.86007C8.50996 3.98007 8.45996 4.10007 8.45996 4.22007ZM14.46 4.22007V7.22007C14.46 7.30007 14.44 7.36007 14.4 7.40007C14.36 7.44007 14.32 7.46007 14.28 7.46007H2.99996C2.83996 7.46007 2.70996 7.51007 2.60996 7.61007C2.50996 7.71007 2.45996 7.84007 2.45996 8.00007C2.45996 8.16007 2.50996 8.29007 2.60996 8.39007C2.70996 8.49007 2.83996 8.54007 2.99996 8.54007H14.28C14.64 8.54007 14.94 8.42007 15.18 8.18007C15.42 7.94007 15.54 7.62007 15.54 7.22007V4.28007C15.54 4.12007 15.49 3.98007 15.39 3.86007C15.29 3.74007 15.16 3.68007 15 3.68007C14.84 3.68007 14.71 3.74007 14.61 3.86007C14.51 3.98007 14.46 4.10007 14.46 4.22007Z" fill="#050B20"/>
</svg>
