<svg width="17" height="15" viewBox="0 0 17 15" fill="none" xmlns="http://www.w3.org/2000/svg">
<path d="M2.04 -0.000106812C1.48 -0.000106812 1 0.199893 0.6 0.599893C0.2 0.999893 0 1.48989 0 2.06989C0 2.64989 0.2 3.13989 0.6 3.53989C1 3.93989 1.48 4.13989 2.04 4.13989C2.6 4.13989 3.08 3.93989 3.48 3.53989C3.88 3.13989 4.08 2.64989 4.08 2.06989C4.08 1.48989 3.88 0.999893 3.48 0.599893C3.08 0.199893 2.6 -0.000106812 2.04 -0.000106812ZM2.04 1.13989C2.28 1.13989 2.5 1.22989 2.7 1.40989C2.9 1.58989 3 1.80989 3 2.06989C3 2.32989 2.9 2.54989 2.7 2.72989C2.5 2.90989 2.28 2.99989 2.04 2.99989C1.8 2.99989 1.58 2.90989 1.38 2.72989C1.18 2.54989 1.08 2.32989 1.08 2.06989C1.08 1.80989 1.18 1.58989 1.38 1.40989C1.58 1.22989 1.8 1.13989 2.04 1.13989ZM2.04 10.4999C1.48 10.4999 1 10.6999 0.6 11.0999C0.2 11.4999 0 11.9899 0 12.5699C0 13.1499 0.2 13.6399 0.6 14.0399C1 14.4399 1.48 14.6399 2.04 14.6399C2.6 14.6399 3.08 14.4399 3.48 14.0399C3.88 13.6399 4.08 13.1499 4.08 12.5699C4.08 11.9899 3.88 11.4999 3.48 11.0999C3.08 10.6999 2.6 10.4999 2.04 10.4999ZM2.04 11.6399C2.28 11.6399 2.5 11.7299 2.7 11.9099C2.9 12.0899 3 12.3099 3 12.5699C3 12.8299 2.9 13.0499 2.7 13.2299C2.5 13.4099 2.28 13.4999 2.04 13.4999C1.8 13.4999 1.58 13.4099 1.38 13.2299C1.18 13.0499 1.08 12.8299 1.08 12.5699C1.08 12.3099 1.18 12.0899 1.38 11.9099C1.58 11.7299 1.8 11.6399 2.04 11.6399ZM8.04 -0.000106812C7.48 -0.000106812 7 0.199893 6.6 0.599893C6.2 0.999893 6 1.48989 6 2.06989C6 2.64989 6.2 3.13989 6.6 3.53989C7 3.93989 7.48 4.13989 8.04 4.13989C8.6 4.13989 9.08 3.93989 9.48 3.53989C9.88 3.13989 10.08 2.64989 10.08 2.06989C10.08 1.48989 9.88 0.999893 9.48 0.599893C9.08 0.199893 8.6 -0.000106812 8.04 -0.000106812ZM8.04 1.13989C8.28 1.13989 8.5 1.22989 8.7 1.40989C8.9 1.58989 9 1.80989 9 2.06989C9 2.32989 8.9 2.54989 8.7 2.72989C8.5 2.90989 8.28 2.99989 8.04 2.99989C7.8 2.99989 7.58 2.90989 7.38 2.72989C7.18 2.54989 7.08 2.32989 7.08 2.06989C7.08 1.80989 7.18 1.58989 7.38 1.40989C7.58 1.22989 7.8 1.13989 8.04 1.13989ZM8.04 10.4999C7.48 10.4999 7 10.6999 6.6 11.0999C6.2 11.4999 6 11.9899 6 12.5699C6 13.1499 6.2 13.6399 6.6 14.0399C7 14.4399 7.48 14.6399 8.04 14.6399C8.6 14.6399 9.08 14.4399 9.48 14.0399C9.88 13.6399 10.08 13.1499 10.08 12.5699C10.08 11.9899 9.88 11.4999 9.48 11.0999C9.08 10.6999 8.6 10.4999 8.04 10.4999ZM8.04 11.6399C8.28 11.6399 8.5 11.7299 8.7 11.9099C8.9 12.0899 9 12.3099 9 12.5699C9 12.8299 8.9 13.0499 8.7 13.2299C8.5 13.4099 8.28 13.4999 8.04 13.4999C7.8 13.4999 7.58 13.4099 7.38 13.2299C7.18 13.0499 7.08 12.8299 7.08 12.5699C7.08 12.3099 7.18 12.0899 7.38 11.9099C7.58 11.7299 7.8 11.6399 8.04 11.6399ZM14.04 -0.000106812C13.48 -0.000106812 13 0.199893 12.6 0.599893C12.2 0.999893 12 1.48989 12 2.06989C12 2.64989 12.2 3.13989 12.6 3.53989C13 3.93989 13.48 4.13989 14.04 4.13989C14.6 4.13989 15.08 3.93989 15.48 3.53989C15.88 3.13989 16.08 2.64989 16.08 2.06989C16.08 1.48989 15.88 0.999893 15.48 0.599893C15.08 0.199893 14.6 -0.000106812 14.04 -0.000106812ZM14.04 1.13989C14.28 1.13989 14.5 1.22989 14.7 1.40989C14.9 1.58989 15 1.80989 15 2.06989C15 2.32989 14.9 2.54989 14.7 2.72989C14.5 2.90989 14.28 2.99989 14.04 2.99989C13.8 2.99989 13.58 2.90989 13.38 2.72989C13.18 2.54989 13.08 2.32989 13.08 2.06989C13.08 1.80989 13.18 1.58989 13.38 1.40989C13.58 1.22989 13.8 1.13989 14.04 1.13989ZM14.04 10.4999C13.48 10.4999 13 10.6999 12.6 11.0999C12.2 11.4999 12 11.9899 12 12.5699C12 13.1499 12.2 13.6399 12.6 14.0399C13 14.4399 13.48 14.6399 14.04 14.6399C14.6 14.6399 15.08 14.4399 15.48 14.0399C15.88 13.6399 16.08 13.1499 16.08 12.5699C16.08 11.9899 15.88 11.4999 15.48 11.0999C15.08 10.6999 14.6 10.4999 14.04 10.4999ZM14.04 11.6399C14.28 11.6399 14.5 11.7299 14.7 11.9099C14.9 12.0899 15 12.3099 15 12.5699C15 12.8299 14.9 13.0499 14.7 13.2299C14.5 13.4099 14.28 13.4999 14.04 13.4999C13.8 13.4999 13.58 13.4099 13.38 13.2299C13.18 13.0499 13.08 12.8299 13.08 12.5699C13.08 12.3099 13.18 12.0899 13.38 11.9099C13.58 11.7299 13.8 11.6399 14.04 11.6399ZM1.5 3.53989V11.0399C1.5 11.1999 1.55 11.3399 1.65 11.4599C1.75 11.5799 1.88 11.6399 2.04 11.6399C2.2 11.6399 2.33 11.5799 2.43 11.4599C2.53 11.3399 2.58 11.2199 2.58 11.0999V3.53989C2.58 3.41989 2.53 3.29989 2.43 3.17989C2.33 3.05989 2.2 2.99989 2.04 2.99989C1.88 2.99989 1.75 3.05989 1.65 3.17989C1.55 3.29989 1.5 3.41989 1.5 3.53989ZM7.5 3.53989V11.0399C7.5 11.1999 7.55 11.3399 7.65 11.4599C7.75 11.5799 7.88 11.6399 8.04 11.6399C8.2 11.6399 8.33 11.5799 8.43 11.4599C8.53 11.3399 8.58 11.2199 8.58 11.0999V3.53989C8.58 3.41989 8.53 3.29989 8.43 3.17989C8.33 3.05989 8.2 2.99989 8.04 2.99989C7.88 2.99989 7.75 3.05989 7.65 3.17989C7.55 3.29989 7.5 3.41989 7.5 3.53989ZM13.5 3.53989V6.53989C13.5 6.61989 13.48 6.67989 13.44 6.71989C13.4 6.75989 13.36 6.77989 13.32 6.77989H2.04C1.88 6.77989 1.75 6.82989 1.65 6.92989C1.55 7.02989 1.5 7.15989 1.5 7.31989C1.5 7.47989 1.55 7.60989 1.65 7.70989C1.75 7.80989 1.88 7.85989 2.04 7.85989H13.32C13.68 7.85989 13.98 7.73989 14.22 7.49989C14.46 7.25989 14.58 6.93989 14.58 6.53989V3.59989C14.58 3.43989 14.53 3.29989 14.43 3.17989C14.33 3.05989 14.2 2.99989 14.04 2.99989C13.88 2.99989 13.75 3.05989 13.65 3.17989C13.55 3.29989 13.5 3.41989 13.5 3.53989Z" fill="#405FF2"/>
</svg>
