<svg width="15" height="19" viewBox="0 0 15 19" fill="none" xmlns="http://www.w3.org/2000/svg">
<path d="M5.0998 9.15C4.9398 9.15 4.7998 9.09 4.6798 8.97C4.5598 8.85 4.4998 8.71 4.4998 8.55V6.75C4.4598 6.51 4.5498 6.32 4.7698 6.18C4.9898 6.04 5.2098 6.04 5.4298 6.18C5.6498 6.32 5.7398 6.51 5.6998 6.75V8.55C5.6998 8.71 5.6398 8.85 5.5198 8.97C5.3998 9.09 5.2598 9.15 5.0998 9.15ZM7.4998 9.15C7.3398 9.15 7.1998 9.09 7.0798 8.97C6.9598 8.85 6.8998 8.71 6.8998 8.55V6.15C6.8998 5.99 6.9598 5.86 7.0798 5.76C7.1998 5.66 7.3398 5.61 7.4998 5.61C7.6598 5.61 7.7998 5.66 7.9198 5.76C8.0398 5.86 8.0998 5.99 8.0998 6.15V8.55C8.0998 8.71 8.0398 8.85 7.9198 8.97C7.7998 9.09 7.6598 9.15 7.4998 9.15ZM9.8998 9.15C9.7398 9.15 9.5998 9.09 9.4798 8.97C9.3598 8.85 9.2998 8.71 9.2998 8.55V4.95C9.2598 4.71 9.3498 4.52 9.5698 4.38C9.7898 4.24 10.0098 4.24 10.2298 4.38C10.4498 4.52 10.5398 4.71 10.4998 4.95V8.55C10.4998 8.71 10.4398 8.85 10.3198 8.97C10.1998 9.09 10.0598 9.15 9.8998 9.15ZM12.2998 18.75H2.6998C2.0198 18.75 1.4498 18.52 0.989805 18.06C0.529805 17.6 0.299805 17.03 0.299805 16.35V5.49C0.299805 5.05 0.389805 4.62 0.569805 4.2C0.749805 3.78 1.0198 3.43 1.3798 3.15L3.4798 1.47C3.9998 0.99 4.6198 0.75 5.3398 0.75H12.2998C12.9798 0.75 13.5498 0.98 14.0098 1.44C14.4698 1.9 14.6998 2.47 14.6998 3.15V16.35C14.6998 17.03 14.4698 17.6 14.0098 18.06C13.5498 18.52 12.9798 18.75 12.2998 18.75ZM5.3398 1.95C4.9398 1.95 4.5798 2.09 4.2598 2.37L2.1598 4.11C1.7198 4.47 1.4998 4.93 1.4998 5.49V16.35C1.4998 16.67 1.6198 16.95 1.8598 17.19C2.0998 17.43 2.3798 17.55 2.6998 17.55H12.2998C12.6198 17.55 12.8998 17.43 13.1398 17.19C13.3798 16.95 13.4998 16.67 13.4998 16.35V3.15C13.4998 2.83 13.3798 2.55 13.1398 2.31C12.8998 2.07 12.6198 1.95 12.2998 1.95H5.3398ZM11.0998 15.15H3.8998C3.6598 15.19 3.4698 15.1 3.3298 14.88C3.1898 14.66 3.1898 14.44 3.3298 14.22C3.4698 14 3.6598 13.91 3.8998 13.95H11.0998C11.3398 13.91 11.5298 14 11.6698 14.22C11.8098 14.44 11.8098 14.66 11.6698 14.88C11.5298 15.1 11.3398 15.19 11.0998 15.15ZM11.0998 12.15H3.8998C3.7398 12.15 3.6098 12.09 3.5098 11.97C3.4098 11.85 3.3598 11.71 3.3598 11.55C3.3598 11.39 3.4098 11.25 3.5098 11.13C3.6098 11.01 3.7398 10.95 3.8998 10.95H11.0998C11.3398 10.91 11.5298 11 11.6698 11.22C11.8098 11.44 11.8098 11.66 11.6698 11.88C11.5298 12.1 11.3398 12.19 11.0998 12.15Z" fill="#050B20"/>
</svg>
