<svg width="14" height="14" viewBox="0 0 14 14" fill="none" xmlns="http://www.w3.org/2000/svg">
<path d="M3.33847 14H0.613859V5.24023H3.33847V14ZM1.96152 4.06836C1.11191 4.06836 0.408781 3.33594 0.408781 2.45703C0.408781 1.60742 1.11191 0.904297 1.96152 0.904297C2.84042 0.904297 3.54355 1.60742 3.54355 2.45703C3.54355 3.33594 2.84042 4.06836 1.96152 4.06836ZM13.5045 14H10.8092V9.75195C10.8092 8.72656 10.7799 7.4375 9.37362 7.4375C7.96737 7.4375 7.7623 8.52148 7.7623 9.66406V14H5.03769V5.24023H7.64511V6.44141H7.67441C8.05527 5.76758 8.93417 5.03516 10.2525 5.03516C13.0064 5.03516 13.5338 6.85156 13.5338 9.19531V14H13.5045Z" fill="#050B20"/>
<a href="https://www.figma.com/design/yltEjuKWFRTTbaT9uazIWz?node-id=10-1962">
<rect fill="black" fill-opacity="0" x="0.178312" y="-1.125" width="13.125" height="17.25"/>
</a>
</svg>
