<svg width="16" height="13" viewBox="0 0 16 13" fill="none" xmlns="http://www.w3.org/2000/svg">
<path d="M13.6348 3.32812C13.6348 3.47461 13.6348 3.5918 13.6348 3.73828C13.6348 7.81055 10.5586 12.4688 4.9043 12.4688C3.14648 12.4688 1.53516 11.9707 0.1875 11.0918C0.421875 11.1211 0.65625 11.1504 0.919922 11.1504C2.35547 11.1504 3.67383 10.6523 4.72852 9.83203C3.38086 9.80273 2.23828 8.92383 1.85742 7.69336C2.0625 7.72266 2.23828 7.75195 2.44336 7.75195C2.70703 7.75195 3 7.69336 3.23438 7.63477C1.82812 7.3418 0.773438 6.11133 0.773438 4.61719V4.58789C1.18359 4.82227 1.68164 4.93945 2.17969 4.96875C1.33008 4.41211 0.802734 3.47461 0.802734 2.41992C0.802734 1.83398 0.949219 1.30664 1.21289 0.867188C2.73633 2.71289 5.02148 3.94336 7.57031 4.08984C7.51172 3.85547 7.48242 3.62109 7.48242 3.38672C7.48242 1.6875 8.85938 0.310547 10.5586 0.310547C11.4375 0.310547 12.2285 0.662109 12.8145 1.27734C13.4883 1.13086 14.1621 0.867188 14.748 0.515625C14.5137 1.24805 14.0449 1.83398 13.4004 2.21484C14.0156 2.15625 14.6309 1.98047 15.1582 1.74609C14.748 2.36133 14.2207 2.88867 13.6348 3.32812Z" fill="#050B20"/>
<a href="https://www.figma.com/design/yltEjuKWFRTTbaT9uazIWz?node-id=10-1962">
<rect fill="black" fill-opacity="0" x="0.1875" y="-1.125" width="15" height="17.25"/>
</a>
</svg>
