<?xml version="1.0" standalone="no"?>
<!DOCTYPE svg PUBLIC "-//W3C//DTD SVG 20010904//EN"
 "http://www.w3.org/TR/2001/REC-SVG-20010904/DTD/svg10.dtd">
<svg version="1.0" xmlns="http://www.w3.org/2000/svg"
 width="3456.000000pt" height="3456.000000pt" viewBox="0 0 3456.000000 3456.000000"
 preserveAspectRatio="xMidYMid meet">
<metadata>
Created by potrace 1.14, written by Peter Selinger 2001-2017
</metadata>
<g transform="translate(0.000000,3456.000000) scale(0.100000,-0.100000)"
fill="#000000" stroke="none">
<path d="M7138 21455 c-2 -2 -32 -6 -68 -9 -36 -3 -87 -8 -115 -12 -27 -4 -60
-7 -72 -7 -13 -1 -23 -4 -23 -7 0 -3 -8 -6 -17 -7 -42 -3 -161 -33 -242 -60
-126 -41 -309 -124 -323 -147 -4 -6 -8 -7 -8 -3 0 11 -105 -61 -195 -134 -91
-73 -265 -262 -265 -287 0 -6 -4 -12 -9 -14 -21 -8 -131 -210 -179 -329 -41
-104 -83 -235 -98 -309 -2 -14 -9 -47 -14 -75 -18 -91 -20 -100 -26 -155 -3
-30 -7 -66 -9 -80 -15 -83 -18 -478 -18 -2385 0 -2085 2 -2249 27 -2430 2 -16
7 -52 10 -80 4 -27 9 -58 12 -67 3 -9 6 -25 8 -35 21 -108 71 -277 106 -358
101 -237 200 -388 359 -545 53 -52 106 -102 117 -110 56 -43 174 -120 182
-120 6 0 17 -6 24 -13 13 -13 36 -25 138 -70 56 -24 84 -35 98 -38 4 0 23 -8
42 -16 19 -8 43 -17 53 -19 30 -7 50 -12 110 -28 31 -9 73 -18 92 -20 19 -2
43 -7 54 -11 11 -3 37 -8 58 -10 99 -10 201 -19 226 -19 15 -1 27 -5 27 -9 0
-5 4 -6 10 -2 5 3 87 7 182 9 95 2 196 7 223 11 28 3 66 8 85 10 19 2 36 4 38
5 1 2 10 3 20 4 9 1 36 6 59 10 24 4 45 8 48 7 2 0 23 6 45 14 22 8 41 14 43
14 11 -4 130 34 184 57 17 8 35 14 40 14 8 0 163 77 241 120 23 13 42 27 42
32 0 4 7 8 15 8 8 0 15 5 15 10 0 6 6 10 14 10 8 0 16 3 18 8 2 4 26 25 53 47
98 78 217 208 288 315 20 30 41 60 45 65 16 20 130 261 142 300 7 22 15 45 19
50 3 6 6 13 7 18 1 4 2 8 4 10 1 1 3 9 5 17 2 8 13 49 24 90 12 41 28 113 37
160 9 47 18 93 20 104 3 19 11 84 20 166 3 25 6 139 8 253 2 114 6 210 9 213
3 3 2 18 -2 32 -6 23 -6 198 -1 212 1 3 1 10 0 15 -6 25 -4 697 2 701 3 2 3
17 0 32 -7 23 -8 198 -2 212 1 3 1 10 0 15 -6 25 -4 697 2 701 3 2 3 17 0 32
-9 33 -8 199 1 208 3 3 2 16 -1 28 -9 25 -8 217 1 240 4 9 3 16 -1 16 -9 0 -8
183 1 197 4 7 4 14 -1 17 -8 5 -7 69 2 93 3 7 2 13 -2 13 -9 0 -8 183 1 197 4
7 4 14 -1 17 -8 5 -7 69 2 93 3 7 2 13 -2 13 -9 0 -8 183 1 197 4 7 4 14 -1
17 -8 5 -7 69 2 93 3 7 2 13 -2 13 -8 0 -8 187 1 196 3 3 3 16 -1 28 -7 18 -8
192 -2 214 1 4 1 12 0 17 -1 6 -3 71 -5 145 -2 74 -7 164 -11 200 -5 36 -9 80
-9 98 0 17 -3 32 -6 32 -3 0 -5 14 -4 30 1 17 -1 30 -4 30 -3 0 -7 16 -9 36
-4 64 -78 336 -111 409 -87 192 -208 405 -231 405 -5 0 -11 9 -15 19 -8 27
-208 227 -234 236 -12 3 -21 10 -21 15 0 5 -17 19 -37 31 -21 13 -40 26 -43
29 -9 11 -145 87 -210 117 -72 34 -201 82 -239 89 -14 3 -29 8 -35 12 -6 3
-15 7 -21 8 -5 1 -21 4 -35 7 -78 17 -139 28 -165 32 -16 2 -48 7 -70 11 -22
4 -53 9 -70 11 -36 5 -473 12 -477 8z m392 -1139 c35 -10 74 -23 85 -29 11 -6
25 -12 32 -13 31 -5 126 -83 169 -139 69 -88 133 -266 139 -386 1 -26 4 -50 7
-55 6 -12 1 -4475 -5 -4545 -3 -31 -13 -82 -22 -115 -9 -32 -17 -66 -19 -74
-6 -24 -39 -105 -45 -110 -3 -3 -15 -22 -25 -43 -26 -51 -130 -146 -191 -176
-28 -13 -57 -27 -65 -31 -9 -4 -29 -10 -45 -14 -17 -3 -41 -9 -55 -12 -14 -3
-56 -7 -95 -9 -38 -2 -74 -4 -80 -5 -5 -1 -12 -2 -15 -1 -3 1 -31 4 -62 6 -31
2 -65 6 -76 9 -11 4 -29 8 -39 10 -10 2 -25 6 -33 8 -8 1 -48 20 -90 42 -161
83 -255 235 -295 479 -12 68 -14 477 -11 2362 1 1254 6 2298 10 2320 30 167
91 299 177 384 78 78 186 132 294 147 22 4 41 7 43 9 11 10 257 -5 312 -19z"/>
<path d="M17168 21455 c-2 -1 -39 -5 -83 -9 -44 -3 -93 -8 -110 -11 -156 -26
-181 -31 -223 -44 -18 -5 -35 -10 -37 -10 -14 0 -124 -34 -152 -47 -17 -8 -33
-14 -36 -14 -2 0 -22 -8 -43 -17 -22 -9 -41 -17 -44 -18 -15 -3 -143 -73 -190
-103 -111 -73 -243 -187 -315 -273 -16 -20 -91 -119 -123 -164 -61 -85 -193
-388 -217 -498 -2 -12 -10 -42 -16 -67 -6 -25 -13 -55 -14 -67 -2 -11 -6 -30
-9 -41 -4 -11 -9 -35 -12 -53 -2 -19 -7 -54 -11 -79 -4 -25 -7 -57 -7 -72 -1
-16 -3 -28 -6 -28 -3 0 -7 -39 -10 -88 -7 -142 -5 -4509 2 -4602 10 -119 17
-177 28 -235 5 -27 12 -66 15 -85 29 -186 143 -493 235 -635 11 -16 23 -37 27
-45 3 -8 21 -33 40 -56 18 -23 33 -44 33 -48 0 -7 19 -28 116 -131 50 -52 146
-131 219 -179 39 -25 75 -49 80 -53 10 -8 126 -67 135 -69 3 0 21 -8 40 -16
39 -17 66 -27 78 -29 4 0 13 -5 20 -11 6 -6 12 -7 12 -3 0 4 11 0 25 -9 14 -9
25 -14 25 -12 0 3 15 0 33 -5 17 -6 40 -12 50 -14 10 -2 27 -7 37 -10 26 -8
104 -24 155 -31 11 -1 20 -3 20 -4 0 -2 26 -6 125 -16 104 -10 463 -11 545 -1
146 18 183 23 195 27 3 1 9 2 13 1 5 -1 27 4 50 10 23 6 53 13 66 16 13 2 32
8 43 14 10 5 18 8 18 5 0 -3 48 12 108 33 116 41 252 106 319 152 23 16 46 29
51 29 6 0 12 3 14 8 2 4 28 27 58 50 97 77 260 245 256 265 0 5 7 13 17 18 9
6 17 16 17 23 0 8 7 19 15 26 24 20 134 221 135 247 0 6 4 13 10 15 5 2 11 12
13 23 2 11 10 34 16 50 7 17 19 50 27 75 9 25 18 52 21 60 8 21 11 31 18 65 3
17 9 39 12 50 4 11 8 25 9 30 1 6 7 37 14 70 7 33 14 67 15 75 23 159 25 179
32 285 4 55 7 365 7 689 l1 589 -560 -1 c-308 0 -570 -1 -582 -1 l-22 -1 -1
-607 c0 -335 -2 -624 -4 -643 -3 -19 -7 -57 -10 -84 -36 -290 -201 -483 -456
-531 -67 -13 -272 -13 -326 0 -30 7 -54 11 -54 8 0 -2 -9 1 -21 7 -11 6 -29
13 -40 15 -37 7 -133 69 -179 115 -26 26 -61 71 -78 101 -31 55 -82 194 -87
239 -2 14 -7 57 -11 95 -9 86 -11 4476 -1 4560 17 147 52 273 94 335 12 19 23
38 23 42 0 5 26 35 57 69 62 65 195 141 253 143 16 1 30 3 30 6 0 9 48 13 165
13 135 1 210 -9 254 -33 12 -6 21 -8 21 -5 0 17 131 -67 179 -115 91 -91 163
-251 176 -393 2 -23 4 -42 5 -42 7 0 9 -119 10 -537 0 -263 4 -478 8 -479 19
-3 1138 -4 1148 -2 7 3 10 151 9 481 -2 475 -7 601 -30 732 -2 14 -7 45 -11
70 -3 25 -15 83 -26 130 -11 47 -21 90 -22 95 -2 6 -11 37 -21 70 -11 33 -18
63 -17 68 1 4 -2 7 -8 7 -6 0 -9 3 -8 8 5 13 -38 116 -90 217 -19 39 -42 82
-50 98 -7 15 -17 27 -22 27 -4 0 -10 10 -14 23 -13 52 -200 260 -306 340 -30
23 -64 50 -74 60 -11 9 -26 17 -33 17 -7 0 -13 5 -13 10 0 6 -5 10 -11 10 -6
0 -30 12 -53 28 -57 38 -240 119 -290 129 -11 2 -25 8 -33 14 -7 6 -13 9 -13
6 0 -4 -19 1 -42 9 -24 8 -54 17 -68 19 -14 2 -56 11 -95 19 -71 15 -124 24
-205 32 -52 6 -447 14 -452 9z"/>
<path d="M32148 21455 c-2 -1 -37 -5 -80 -9 -42 -3 -82 -8 -90 -10 -7 -3 -33
-7 -58 -10 -58 -6 -182 -33 -240 -53 -25 -8 -49 -16 -55 -17 -48 -12 -74 -21
-95 -35 -13 -9 -27 -15 -30 -15 -23 6 -232 -106 -315 -168 -95 -72 -206 -181
-273 -268 -31 -41 -60 -77 -63 -80 -3 -3 -21 -32 -41 -65 -61 -103 -134 -265
-168 -375 -18 -58 -35 -112 -38 -120 -7 -22 -9 -28 -27 -110 -17 -79 -19 -93
-30 -180 -4 -30 -9 -66 -11 -80 -17 -99 -22 -456 -10 -615 9 -101 14 -160 16
-160 1 0 3 -9 4 -20 10 -67 44 -233 51 -244 2 -4 6 -21 9 -37 6 -33 61 -207
76 -239 5 -11 21 -49 36 -85 63 -154 202 -400 291 -515 36 -46 37 -48 63 -85
13 -19 27 -37 30 -40 3 -3 16 -18 29 -35 21 -27 81 -98 140 -164 56 -63 306
-313 390 -391 51 -47 114 -105 141 -130 26 -25 89 -82 138 -128 50 -45 120
-111 156 -145 36 -35 66 -62 66 -61 0 1 200 -204 235 -241 11 -12 38 -43 60
-70 22 -26 55 -64 72 -84 18 -20 33 -39 33 -43 0 -4 6 -13 14 -21 31 -31 141
-207 185 -297 43 -87 95 -217 106 -265 2 -11 9 -40 16 -65 28 -113 37 -197 40
-340 1 -74 -10 -217 -21 -260 -6 -25 -12 -54 -14 -65 -8 -55 -54 -159 -97
-222 -30 -43 -75 -93 -85 -93 -3 0 -12 -6 -19 -12 -30 -27 -42 -34 -89 -57
-86 -40 -204 -60 -340 -57 -67 1 -127 5 -133 9 -6 4 -28 10 -49 13 -68 11
-182 75 -245 138 -33 32 -59 64 -59 71 0 7 -4 15 -8 17 -18 7 -75 147 -88 216
-23 121 -27 195 -29 497 -2 187 -3 345 -4 350 -1 11 -1150 13 -1153 2 -9 -40
-13 -97 -7 -97 4 0 4 -13 -1 -30 -5 -16 -5 -30 -1 -30 4 0 5 -20 1 -45 -4 -25
-4 -47 -1 -49 8 -5 6 -59 -2 -72 -3 -6 -2 -16 4 -24 12 -20 11 -33 -1 -25 -7
4 -7 -2 0 -19 5 -14 6 -27 2 -30 -8 -5 -8 -63 0 -72 4 -3 2 -18 -2 -34 -4 -16
-5 -31 -2 -35 3 -3 7 -36 7 -73 2 -69 14 -220 21 -256 2 -11 6 -38 9 -61 11
-75 27 -158 44 -220 6 -22 12 -49 14 -60 2 -11 6 -27 9 -35 3 -8 16 -44 28
-80 22 -66 25 -75 55 -145 49 -114 134 -265 148 -265 4 0 7 -6 7 -13 0 -7 11
-24 25 -39 14 -15 25 -30 25 -32 0 -21 238 -256 259 -256 5 0 11 -4 13 -9 5
-15 169 -116 251 -154 72 -34 250 -100 300 -112 12 -3 40 -9 62 -14 22 -5 51
-12 65 -15 13 -3 42 -8 65 -11 22 -3 51 -8 65 -10 63 -11 150 -17 345 -26 30
-2 294 12 315 16 14 2 41 6 60 9 108 14 144 20 230 43 52 14 100 26 105 27 28
6 91 30 100 37 5 5 15 9 23 9 14 0 197 87 237 112 150 96 304 231 391 343 22
28 42 51 47 53 4 2 7 7 7 12 0 5 16 32 36 62 61 92 176 343 199 438 3 8 12 42
21 75 23 84 25 94 38 180 4 22 9 51 13 65 3 14 6 28 5 31 0 3 3 35 8 70 28
185 29 547 4 729 -3 19 -6 53 -8 75 -2 22 -6 47 -9 55 -3 8 -13 49 -21 90 -15
79 -16 82 -39 170 -22 81 -73 229 -99 285 -12 28 -22 52 -23 55 -5 34 -186
356 -209 372 -6 4 -8 8 -4 8 5 0 -8 21 -27 48 -19 26 -39 52 -43 57 -40 56
-130 173 -142 185 -8 9 -37 43 -65 75 -56 67 -456 467 -559 560 -37 33 -82 73
-99 88 -145 130 -441 418 -527 514 -22 24 -88 104 -146 176 -96 119 -227 347
-269 467 -1 3 -4 12 -8 20 -24 61 -59 192 -72 275 -15 102 -17 129 -15 265 4
218 4 230 13 230 4 0 7 11 7 24 0 25 42 163 63 206 70 145 217 252 382 278 48
7 236 8 291 0 64 -8 178 -52 224 -87 58 -43 117 -111 148 -170 29 -56 72 -181
78 -230 2 -14 6 -44 9 -66 4 -22 8 -148 10 -280 2 -132 4 -244 4 -249 1 -5 17
-6 36 -3 24 4 33 2 29 -5 -4 -7 -2 -8 5 -4 15 10 135 11 149 2 6 -3 13 -2 16
2 3 5 18 7 33 5 16 -2 33 -4 38 -4 6 0 40 1 76 2 37 1 71 -1 77 -5 6 -3 13 -2
16 2 3 5 18 7 33 5 16 -2 33 -4 38 -4 6 0 40 1 76 2 37 1 71 -1 77 -5 6 -3 13
-2 16 2 3 5 18 7 33 5 16 -2 33 -4 38 -4 6 0 40 1 76 2 37 1 71 -1 77 -5 6 -3
13 -2 16 2 3 5 18 7 33 5 16 -2 42 -4 58 -3 59 3 110 7 115 9 12 3 0 458 -16
591 -3 25 -7 63 -10 85 -2 22 -6 51 -8 65 -3 14 -8 41 -11 60 -3 19 -15 73
-26 120 -11 47 -22 92 -24 100 -23 99 -166 430 -186 430 -5 0 -9 9 -9 20 0 11
-4 20 -8 20 -5 0 -15 12 -23 28 -8 15 -16 29 -19 32 -3 3 -25 32 -50 64 -25
32 -72 87 -105 121 -69 71 -223 195 -242 195 -7 0 -13 4 -13 8 0 4 -26 21 -57
37 -32 17 -61 34 -65 40 -4 5 -8 7 -8 2 0 -4 -12 0 -27 10 -14 9 -32 18 -38
19 -7 1 -28 9 -46 17 -39 17 -99 40 -114 44 -5 1 -59 16 -120 32 -108 29 -129
33 -230 46 -27 4 -61 9 -75 12 -27 5 -457 13 -462 8z"/>
<path d="M450 21333 c-1 -50 -1 -7717 0 -7766 l0 -38 1113 4 c611 2 1121 6
1132 9 11 3 49 9 85 13 66 7 85 10 130 20 14 3 34 7 45 9 58 12 162 38 175 43
8 3 17 7 20 8 3 1 12 4 20 8 8 3 33 11 55 18 22 6 73 27 113 45 40 19 77 34
82 34 6 0 10 5 10 11 0 5 5 7 10 4 6 -3 10 -1 10 4 0 6 3 10 8 9 15 -5 169
100 249 169 57 50 77 70 158 158 46 50 144 204 192 300 61 124 125 318 149
453 2 12 6 34 9 50 33 176 37 254 38 797 1 608 -7 734 -60 965 -8 36 -16 72
-18 80 -12 52 -50 166 -57 168 -4 2 -8 11 -8 19 0 8 -17 52 -38 97 -21 44 -39
86 -41 91 -1 6 -10 19 -20 30 -10 11 -20 27 -23 35 -29 81 -335 390 -388 390
-5 0 -10 4 -10 9 0 4 -54 35 -120 67 -66 33 -120 62 -120 65 0 3 18 13 39 23
40 17 174 101 209 131 47 40 180 173 202 203 14 19 30 39 35 46 21 25 94 149
92 156 -1 3 8 20 21 38 13 17 20 32 16 32 -3 0 -2 6 4 13 15 18 63 157 54 157
-4 0 -2 4 3 8 9 6 38 104 50 167 2 11 4 20 5 20 2 0 7 30 19 115 20 146 22
161 25 229 2 38 7 74 10 80 4 6 2 11 -4 11 -6 0 -8 5 -4 12 8 13 8 527 0 648
-5 77 -14 156 -21 200 -3 14 -7 45 -11 70 -3 25 -9 60 -14 79 -5 19 -7 38 -4
42 2 4 0 10 -6 14 -5 3 -10 16 -10 28 0 29 -51 186 -84 261 -14 32 -26 65 -26
72 0 8 -4 14 -9 14 -5 0 -11 11 -15 23 -6 27 -133 220 -147 225 -5 2 -9 8 -9
13 0 17 -144 152 -225 211 -94 69 -261 153 -395 198 -52 18 -101 34 -110 35
-8 2 -15 4 -15 5 0 1 -11 3 -25 5 -32 6 -64 13 -67 15 -5 4 -99 21 -138 25 -5
1 -35 5 -65 9 -30 4 -77 10 -105 13 -27 3 -528 8 -1112 10 l-1063 4 0 -38z
m1985 -1096 c52 -12 109 -29 135 -40 66 -29 148 -97 197 -162 22 -28 63 -118
81 -175 44 -139 53 -244 52 -595 -1 -250 -1 -274 1 -297 4 -78 -27 -288 -55
-373 -2 -5 -4 -14 -6 -20 -1 -5 -18 -41 -38 -80 -32 -60 -115 -157 -176 -203
-44 -35 -154 -76 -261 -98 -59 -12 -164 -17 -406 -18 -231 -1 -270 1 -274 14
-4 13 -6 85 -4 130 0 8 0 24 -1 35 -1 11 -1 73 0 137 1 64 -1 121 -4 127 -4 6
-2 11 4 11 6 0 8 4 5 10 -3 5 -6 38 -6 72 0 35 0 97 0 138 0 41 0 81 0 88 2
31 2 38 1 57 -1 11 -1 67 -1 125 1 58 1 147 1 199 0 52 2 96 4 98 2 3 1 17 -3
31 -4 15 -5 38 -1 52 3 14 3 40 -1 58 -4 17 -3 32 1 32 4 0 4 15 1 33 -4 17
-4 47 0 65 4 18 3 32 -3 32 -5 0 -6 4 -3 10 3 5 6 40 5 77 -1 38 -1 77 0 88 0
11 0 29 0 40 -1 25 -1 16 0 178 l2 138 361 -4 c199 -2 376 -6 392 -10z m-5
-3190 c68 -10 190 -41 190 -48 0 -5 9 -9 19 -9 11 0 23 -5 26 -10 4 -6 11 -8
16 -5 5 4 9 2 9 -3 0 -5 8 -12 18 -16 66 -22 170 -138 219 -246 26 -56 59
-169 69 -235 4 -27 9 -57 10 -65 26 -126 24 -1125 -1 -1250 -3 -14 -8 -38 -11
-55 -31 -171 -135 -322 -265 -385 -129 -62 -133 -63 -611 -67 l-438 -5 1 60
c1 33 -2 65 -6 71 -3 6 -1 11 5 11 6 0 8 5 5 10 -5 9 -7 109 -4 170 1 8 1 42
0 75 0 33 -1 67 0 75 0 8 0 24 -1 35 -1 11 -1 67 0 125 1 58 1 110 0 115 -2 6
-2 14 -1 18 4 24 3 198 -1 202 -3 3 -2 26 2 50 4 25 3 48 -2 51 -4 3 -6 9 -3
14 4 7 6 59 4 130 0 8 0 49 1 90 0 41 0 117 0 169 0 52 2 96 4 98 2 3 1 17 -3
31 -4 15 -5 38 -1 52 3 14 3 40 -1 58 -4 17 -3 32 1 32 4 0 4 15 1 33 -4 17
-4 47 0 65 4 18 3 32 -3 32 -5 0 -6 4 -3 10 3 5 6 40 5 77 -1 65 -1 87 1 116
0 6 0 21 -1 32 -1 11 -1 79 0 152 1 73 -1 136 -4 142 -5 8 694 7 754 -2z"/>
<path d="M10210 21361 c0 -5 5 -22 11 -38 6 -15 12 -35 14 -43 2 -8 16 -49 30
-90 14 -41 28 -82 30 -90 5 -18 180 -529 188 -550 6 -14 59 -176 63 -192 1 -5
3 -10 4 -13 1 -3 4 -9 5 -15 1 -5 3 -11 5 -12 1 -2 3 -10 5 -18 2 -8 32 -94
65 -190 34 -96 65 -186 68 -200 22 -78 78 -236 87 -242 5 -4 7 -8 4 -8 -4 0
18 -71 47 -157 30 -87 56 -165 59 -173 2 -8 27 -82 55 -165 28 -82 53 -158 55
-167 2 -9 9 -26 15 -37 6 -12 8 -21 4 -21 -3 0 1 -11 10 -25 9 -14 15 -25 12
-25 -2 0 32 -105 76 -232 44 -128 81 -240 83 -248 2 -8 4 -15 5 -15 1 0 3 -7
5 -15 3 -13 213 -630 216 -637 1 -2 2 -6 4 -10 1 -5 4 -15 8 -23 3 -8 15 -45
27 -82 21 -66 21 -69 4 -120 -9 -29 -21 -59 -27 -65 -5 -7 -7 -13 -4 -13 5 0
-24 -92 -42 -135 -5 -11 -51 -144 -101 -295 -51 -151 -97 -280 -101 -286 -5
-6 -6 -14 -2 -17 3 -4 1 -12 -4 -19 -10 -13 -32 -73 -38 -106 -2 -9 -4 -18 -5
-19 -2 -2 -3 -6 -5 -10 -1 -5 -5 -15 -8 -23 -15 -34 -150 -436 -150 -447 0 -7
-4 -13 -9 -13 -4 0 -7 -3 -7 -7 1 -5 0 -11 -1 -15 -1 -5 -4 -12 -5 -18 -1 -5
-3 -11 -5 -12 -1 -2 -3 -10 -5 -18 -3 -12 -99 -290 -118 -340 -6 -16 -70 -211
-72 -220 -1 -3 -5 -12 -8 -20 -8 -20 -37 -102 -41 -115 -3 -12 -45 -144 -53
-165 -22 -59 -95 -268 -98 -280 -2 -8 -29 -89 -61 -180 -31 -91 -57 -171 -57
-177 0 -7 -3 -13 -7 -13 -4 0 -7 -6 -7 -12 -1 -11 -105 -317 -223 -658 -17
-47 -32 -92 -34 -100 -16 -54 -49 -147 -57 -156 -5 -6 -6 -14 -2 -17 3 -4 264
-7 579 -7 l572 0 17 53 c9 28 19 59 22 67 4 8 7 18 8 23 2 4 4 9 5 12 1 3 3 8
4 13 3 11 27 85 33 102 4 8 7 17 8 20 9 38 41 128 48 138 5 6 7 12 3 12 -3 0
5 29 19 65 13 36 22 65 19 65 -2 0 2 13 11 30 8 16 15 38 15 50 0 11 4 20 8
20 5 0 9 6 9 13 0 23 58 192 68 199 5 4 7 8 2 8 -4 0 -1 16 7 35 8 19 13 35
11 35 -3 0 6 29 20 65 13 36 22 65 18 65 -3 0 0 6 6 13 6 8 8 17 4 20 -3 4 -2
7 4 7 5 0 10 6 10 13 0 6 29 97 63 200 34 104 63 194 64 200 2 7 9 26 15 42 7
17 14 37 16 45 5 22 85 271 95 295 9 21 98 288 105 315 2 8 24 78 50 155 57
173 52 159 53 165 0 3 6 19 12 35 7 17 14 37 16 45 7 28 45 145 54 165 5 11
27 79 50 150 43 133 55 159 57 126 1 -10 26 -92 56 -182 78 -238 199 -612 201
-624 0 -5 3 -12 6 -15 4 -4 22 -59 33 -105 1 -5 5 -14 9 -20 7 -13 42 -126 43
-141 0 -6 6 -18 12 -26 7 -7 12 -23 12 -33 0 -11 20 -78 45 -150 25 -71 45
-130 45 -130 0 0 2 -7 5 -15 36 -114 49 -157 49 -167 0 -7 4 -13 9 -13 4 0 8
-9 8 -20 0 -11 4 -28 9 -38 9 -17 32 -97 31 -107 0 -3 7 -19 15 -35 8 -16 15
-31 15 -32 -1 -2 1 -10 4 -18 2 -8 19 -60 36 -115 17 -55 34 -107 37 -115 3
-8 7 -19 8 -25 1 -5 10 -32 20 -60 9 -27 18 -57 20 -65 2 -8 20 -62 40 -120
19 -58 35 -105 35 -105 -1 0 1 -7 4 -15 3 -8 15 -46 26 -85 12 -38 25 -79 30
-90 8 -19 97 -294 106 -325 2 -8 9 -32 16 -52 l13 -38 647 0 c357 0 648 2 648
5 0 7 -66 203 -164 488 -41 119 -72 217 -69 217 3 0 1 6 -4 13 -8 9 -40 94
-48 127 -1 3 -5 13 -9 22 -4 9 -8 22 -10 30 -1 11 -40 124 -64 188 -3 8 -6 17
-7 20 0 3 -9 30 -20 60 -10 30 -20 60 -21 65 -2 6 -21 62 -44 125 -22 63 -43
122 -45 130 -2 8 -25 76 -50 150 -26 74 -48 140 -49 145 -3 10 -10 29 -25 70
-13 34 -42 119 -46 135 -7 27 -111 326 -118 336 -3 6 -8 21 -11 35 -3 13 -46
143 -96 289 -50 146 -107 312 -126 370 -19 58 -39 114 -44 125 -5 11 -14 38
-21 60 -6 22 -14 45 -18 50 -3 6 -6 15 -7 20 -1 10 -58 181 -71 215 -9 24 -94
274 -97 285 -2 6 -6 17 -9 25 -64 160 -83 254 -59 295 4 6 7 15 8 20 1 6 23
71 49 145 25 74 47 140 48 145 2 6 5 15 8 20 4 6 10 24 14 40 5 17 9 35 11 40
1 6 25 74 53 153 27 78 51 146 52 150 4 16 11 38 21 64 6 15 10 29 10 32 0 3
11 36 25 73 14 37 28 79 30 93 3 14 9 30 13 35 4 6 11 26 15 45 4 19 11 40 15
45 5 6 14 30 21 55 7 25 14 50 15 55 2 6 14 41 28 78 13 37 24 69 24 70 1 1 3
9 6 17 3 8 21 60 39 115 18 56 36 105 39 110 3 6 9 26 13 45 4 19 11 41 16 50
4 8 20 53 35 100 15 47 31 91 37 98 5 6 7 12 3 12 -3 0 1 16 9 36 8 20 17 46
20 58 3 16 64 194 98 286 10 28 27 85 28 95 0 6 4 15 8 20 5 6 12 24 16 40 12
44 12 45 15 50 1 3 3 8 5 13 1 4 4 14 8 22 11 29 179 525 182 540 2 8 4 15 4
15 3 0 122 353 127 374 3 14 8 29 12 35 3 6 7 16 8 21 1 6 18 58 38 116 20 59
36 109 36 113 0 3 -257 5 -570 4 -314 -2 -570 -5 -570 -8 1 -3 -11 -36 -25
-73 -14 -38 -23 -73 -20 -78 4 -5 2 -9 -3 -9 -5 0 -9 -6 -10 -12 -1 -7 -33
-107 -72 -223 -39 -115 -72 -214 -74 -220 -3 -13 -66 -205 -73 -225 -4 -8 -7
-17 -8 -20 0 -3 -18 -57 -39 -120 -21 -63 -39 -122 -41 -130 -2 -8 -13 -39
-24 -68 -11 -29 -20 -56 -21 -60 -2 -4 -6 -17 -11 -30 -5 -13 -9 -26 -9 -30 0
-13 -95 -297 -101 -302 -3 -3 -5 -13 -3 -22 1 -10 -2 -18 -7 -18 -5 0 -8 -3
-7 -7 3 -13 -45 -158 -54 -161 -4 -2 -6 -7 -3 -12 3 -5 -3 -30 -14 -57 -10
-26 -20 -52 -21 -58 -3 -13 4 11 -90 -280 -98 -299 -91 -279 -92 -285 0 -3 -9
-27 -20 -55 -11 -27 -21 -57 -23 -65 -6 -32 -77 -235 -85 -243 -4 -5 -11 8
-14 28 -4 21 -11 45 -16 54 -13 26 -130 395 -130 412 0 9 -3 19 -7 22 -11 11
-51 146 -45 152 3 3 0 5 -6 5 -7 0 -11 3 -10 8 2 7 -53 189 -75 247 -6 17 -12
35 -13 40 -1 6 -9 29 -18 53 -8 23 -16 46 -17 50 -2 11 -6 22 -29 95 -12 37
-23 73 -24 80 -3 12 -12 37 -26 72 -7 18 -53 163 -55 175 0 3 -14 43 -29 90
-15 47 -30 92 -31 100 -2 8 -20 62 -40 120 -19 58 -38 114 -40 124 -7 31 -56
179 -66 201 -5 11 -11 29 -12 40 -2 11 -7 29 -11 40 -13 33 -22 60 -96 295
-39 124 -81 257 -94 295 l-23 70 -636 3 c-394 1 -637 -1 -637 -7z"/>
<path d="M21411 21363 c1 -5 0 -10 -1 -13 -1 -3 -4 -16 -5 -30 -10 -69 -19
-125 -29 -180 -3 -14 -8 -42 -11 -62 -3 -21 -7 -55 -10 -75 -3 -21 -10 -60
-15 -88 -6 -27 -12 -69 -14 -92 -2 -22 -6 -45 -9 -50 -3 -4 -8 -37 -12 -73 -4
-36 -8 -67 -10 -70 -2 -3 -6 -27 -10 -55 -4 -27 -9 -63 -12 -80 -2 -16 -6 -42
-7 -56 -2 -15 -7 -39 -10 -55 -4 -16 -8 -42 -11 -59 -7 -54 -18 -122 -40 -250
-3 -16 -8 -52 -11 -80 -3 -27 -10 -57 -15 -66 -4 -9 -6 -19 -4 -21 3 -3 -1
-40 -9 -84 -8 -43 -17 -99 -20 -124 -3 -25 -8 -56 -11 -70 -2 -13 -7 -42 -10
-65 -3 -22 -11 -67 -17 -100 -5 -33 -12 -75 -14 -93 -2 -18 -5 -41 -8 -50 -3
-9 -8 -39 -12 -67 -3 -27 -8 -59 -10 -70 -4 -22 -11 -64 -19 -110 -2 -16 -7
-41 -9 -55 -3 -14 -8 -45 -11 -70 -3 -25 -7 -56 -10 -70 -3 -14 -7 -41 -10
-60 -3 -19 -7 -46 -10 -60 -3 -14 -7 -41 -10 -60 -6 -46 -15 -109 -21 -140 -2
-14 -7 -41 -10 -60 -3 -19 -7 -42 -9 -50 -2 -8 -7 -37 -10 -65 -7 -54 -12 -85
-19 -125 -3 -14 -8 -41 -10 -60 -3 -19 -8 -46 -11 -60 -3 -14 -7 -43 -9 -65
-2 -22 -7 -52 -11 -66 -3 -14 -8 -41 -10 -60 -2 -19 -4 -34 -5 -34 -1 0 -3 -9
-4 -20 -4 -29 -17 -114 -22 -138 -2 -12 -6 -39 -9 -62 -4 -22 -8 -52 -11 -67
-2 -16 -6 -43 -9 -60 -3 -18 -8 -44 -10 -58 -3 -14 -7 -41 -9 -60 -2 -20 -6
-49 -10 -65 -6 -28 -9 -49 -22 -135 -2 -19 -6 -44 -8 -55 -6 -29 -15 -86 -20
-115 -2 -14 -7 -41 -10 -60 -6 -35 -14 -91 -21 -142 -2 -15 -8 -53 -14 -85 -5
-32 -12 -71 -14 -88 -3 -16 -7 -41 -10 -55 -4 -14 -8 -45 -11 -70 -3 -25 -13
-88 -22 -140 -9 -52 -17 -106 -19 -120 -1 -14 -5 -38 -8 -55 -4 -16 -9 -48
-12 -70 -3 -22 -10 -67 -16 -100 -6 -33 -13 -73 -15 -88 -6 -47 -14 -102 -19
-127 -3 -14 -8 -41 -10 -60 -3 -19 -8 -51 -11 -70 -4 -19 -8 -44 -9 -55 -2
-11 -6 -42 -10 -70 -4 -27 -9 -59 -11 -70 -2 -11 -6 -33 -9 -50 -3 -16 -8 -41
-10 -55 -3 -14 -7 -43 -10 -65 -3 -22 -7 -51 -10 -65 -2 -13 -7 -42 -10 -65
-4 -22 -12 -76 -20 -120 -7 -44 -16 -100 -20 -125 -3 -25 -9 -58 -11 -75 -3
-16 -7 -42 -9 -57 -2 -15 -9 -53 -14 -85 -6 -32 -13 -74 -15 -93 -3 -19 -5
-35 -6 -35 -1 0 -3 -13 -5 -30 -2 -16 -9 -61 -16 -100 -6 -38 -13 -81 -14 -95
-2 -14 -7 -43 -11 -65 -4 -22 -8 -49 -10 -60 -1 -11 -3 -20 -4 -20 -1 0 -3
-14 -5 -30 -2 -17 -6 -46 -9 -65 -9 -48 -15 -88 -21 -133 -3 -21 -7 -48 -10
-60 -3 -12 -8 -38 -10 -57 -8 -71 -15 -116 -21 -140 -3 -14 -8 -41 -11 -60 -8
-64 -12 -85 -13 -85 -2 0 -11 -73 -13 -105 l-2 -25 563 -3 c309 -1 562 1 563
5 0 5 2 17 4 28 7 38 16 100 21 140 3 22 9 65 14 95 12 73 22 138 25 175 2 17
5 31 6 33 3 4 5 16 13 82 4 36 9 72 11 80 6 30 18 106 20 130 2 14 4 25 5 25
1 0 3 14 5 30 2 17 6 48 9 70 3 22 9 58 12 80 3 22 7 52 10 68 2 15 6 39 8 55
3 15 7 47 11 72 3 25 13 91 22 148 l16 102 754 0 c594 0 755 -3 758 -12 3 -7
7 -29 9 -48 3 -19 5 -35 6 -35 1 0 3 -13 5 -30 6 -60 15 -120 20 -145 5 -24
14 -85 20 -145 2 -16 4 -30 5 -30 1 0 4 -13 6 -30 8 -55 13 -90 18 -120 3 -16
7 -48 10 -70 6 -39 12 -81 21 -140 3 -16 7 -48 10 -70 4 -22 8 -51 11 -65 2
-14 7 -47 10 -75 3 -27 7 -56 10 -64 3 -8 7 -40 11 -70 6 -59 10 -86 13 -86 1
0 3 -11 4 -25 5 -44 17 -124 22 -142 5 -17 43 -18 625 -18 340 0 619 4 619 8
0 5 -5 35 -11 68 -6 32 -13 70 -14 84 -4 33 -14 93 -25 155 -5 28 -12 68 -15
90 -3 22 -7 51 -9 65 -9 58 -38 241 -51 315 -16 90 -24 143 -31 195 -4 30 -10
68 -30 180 -2 14 -7 45 -10 70 -3 25 -8 54 -10 65 -2 11 -7 38 -9 60 -3 22 -8
54 -12 70 -6 30 -9 48 -18 115 -2 19 -6 44 -9 55 -2 11 -9 56 -16 100 -7 44
-13 85 -15 90 -1 6 -5 33 -9 60 -4 28 -10 61 -12 75 -3 14 -7 41 -10 60 -2 19
-9 58 -14 85 -5 28 -12 70 -15 95 -6 45 -11 78 -19 115 -2 11 -7 45 -11 75 -4
30 -9 64 -11 75 -2 11 -7 34 -10 50 -3 17 -8 46 -10 65 -3 33 -9 74 -20 130
-3 14 -7 34 -9 45 -3 18 -9 56 -21 148 -2 15 -6 39 -9 55 -4 15 -9 43 -11 62
-3 19 -17 100 -30 180 -14 80 -26 161 -28 180 -2 19 -4 35 -5 35 -1 0 -4 14
-6 30 -2 17 -6 46 -10 65 -4 19 -8 49 -10 65 -1 17 -4 30 -5 30 -1 0 -3 11 -4
25 -2 22 -7 56 -22 135 -2 10 -6 37 -9 60 -3 22 -8 54 -12 70 -3 17 -7 41 -9
55 -7 55 -15 107 -24 155 -5 28 -12 73 -16 100 -3 28 -8 59 -11 70 -2 11 -6
34 -8 50 -8 64 -16 111 -21 135 -3 14 -7 39 -9 55 -3 17 -7 44 -9 60 -3 17 -8
45 -11 63 -3 17 -7 46 -10 62 -3 17 -7 44 -10 60 -3 17 -7 42 -9 58 -2 15 -6
43 -10 62 -11 66 -17 105 -21 139 -2 19 -9 57 -14 85 -6 28 -13 71 -16 96 -4
25 -9 61 -12 80 -3 19 -7 42 -8 50 -1 8 -5 31 -9 50 -3 19 -8 51 -11 70 -4 35
-12 82 -21 130 -2 14 -7 43 -10 65 -3 22 -7 51 -10 65 -2 14 -10 63 -18 110
-15 85 -23 138 -31 195 -2 17 -6 44 -9 60 -3 17 -10 57 -15 90 -6 33 -12 71
-15 85 -4 22 -10 62 -22 153 -2 16 -7 33 -10 39 -3 5 -8 31 -10 56 -4 46 -11
97 -14 97 -1 0 -3 18 -5 40 -4 39 -8 65 -19 115 -3 14 -7 43 -10 65 -2 22 -7
51 -10 65 -6 26 -14 78 -22 140 -2 19 -8 58 -14 85 -5 28 -11 66 -14 85 -3 19
-8 55 -12 80 -4 25 -8 52 -9 60 -1 8 -5 31 -8 50 -4 19 -9 53 -13 75 -3 22 -8
49 -9 60 -2 11 -6 38 -10 60 -3 22 -7 51 -10 65 -3 14 -7 41 -10 60 -3 19 -7
44 -9 55 -2 11 -7 44 -11 73 l-7 52 -904 0 c-497 0 -903 -3 -903 -7z m853
-1458 c8 -62 14 -104 19 -130 3 -11 8 -40 11 -65 3 -25 8 -56 11 -70 3 -14 7
-45 10 -70 3 -25 7 -56 10 -70 2 -14 7 -43 10 -65 3 -23 7 -50 9 -60 2 -11 7
-40 10 -65 3 -25 8 -54 10 -65 2 -11 7 -42 10 -70 12 -86 14 -98 26 -170 6
-38 13 -86 15 -105 2 -19 6 -46 9 -60 2 -14 7 -45 10 -70 4 -25 8 -56 10 -70
13 -78 27 -170 32 -205 3 -22 7 -51 9 -65 1 -14 5 -41 9 -60 3 -19 8 -53 11
-75 3 -22 8 -56 12 -75 3 -19 7 -44 9 -55 6 -54 15 -112 19 -135 3 -14 7 -43
10 -65 3 -22 7 -49 9 -60 2 -11 7 -45 11 -75 4 -30 9 -64 12 -75 2 -11 6 -36
8 -55 2 -19 6 -46 9 -60 3 -14 7 -45 10 -70 3 -25 8 -56 11 -70 2 -14 7 -44 9
-65 3 -22 7 -51 10 -65 3 -14 8 -45 11 -70 3 -25 7 -56 10 -70 3 -14 7 -43 10
-65 2 -22 6 -49 9 -60 2 -11 7 -42 10 -70 4 -27 9 -62 11 -76 3 -14 7 -41 10
-60 2 -19 7 -45 9 -59 3 -14 8 -45 11 -70 2 -25 7 -57 10 -71 2 -14 7 -45 9
-70 3 -24 5 -44 6 -44 1 0 4 -13 6 -30 8 -55 13 -90 18 -120 3 -16 7 -48 10
-70 6 -43 14 -93 21 -140 3 -16 8 -50 11 -75 3 -25 9 -62 14 -83 5 -25 4 -39
-4 -44 -6 -4 -273 -8 -594 -8 l-583 0 7 40 c4 22 8 54 10 70 1 17 6 46 9 65 7
35 8 45 20 135 3 28 8 57 10 65 4 13 11 56 20 130 2 14 6 43 10 65 7 47 15
100 20 135 2 14 7 41 10 60 4 19 9 53 11 75 8 71 12 100 14 100 1 0 3 9 4 20
2 11 6 45 10 75 4 30 11 78 17 105 5 28 11 74 14 103 3 29 7 57 9 61 3 4 8 32
11 62 3 30 10 77 15 104 5 28 12 75 15 105 3 30 8 62 10 70 2 8 6 38 10 65 3
28 8 57 10 65 2 8 6 35 9 60 3 25 8 54 10 66 2 12 7 45 11 74 4 29 9 62 11 74
4 22 14 90 29 190 3 22 7 51 10 65 2 14 6 46 10 71 3 25 8 56 11 70 2 14 6 39
8 55 3 17 7 44 9 60 3 17 8 53 12 80 3 28 8 57 10 65 2 8 7 42 10 75 4 32 8
62 10 65 1 3 6 25 9 50 3 25 8 56 10 70 2 14 7 46 10 71 4 25 9 57 11 70 9 54
28 186 31 214 1 17 3 30 4 30 1 0 3 12 5 28 3 25 20 138 31 212 2 17 6 41 9
55 2 14 7 45 10 70 12 84 22 145 25 145 1 0 3 18 4 40 5 67 12 63 20 -10z"/>
<path d="M25608 21363 c-3 -4 -4 -65 -4 -135 1 -81 -2 -128 -9 -128 -7 0 -7
-3 0 -8 7 -4 11 -106 11 -287 0 -181 -4 -283 -11 -287 -6 -5 -6 -8 0 -8 14 0
14 -370 0 -370 -6 0 -6 -3 0 -8 7 -4 11 -93 11 -247 0 -154 -4 -243 -11 -247
-6 -5 -6 -8 0 -8 6 0 10 -71 10 -195 0 -124 -4 -195 -10 -195 -6 0 -6 -3 0 -8
7 -4 11 -75 11 -187 0 -112 -4 -183 -11 -187 -6 -5 -6 -8 0 -8 7 0 10 -101 10
-285 0 -184 -3 -285 -10 -285 -6 0 -6 -3 0 -8 7 -4 11 -75 11 -187 0 -112 -4
-183 -11 -187 -6 -5 -6 -8 0 -8 7 0 10 -101 10 -285 0 -184 -3 -285 -10 -285
-6 0 -6 -3 0 -8 7 -4 11 -75 11 -187 0 -112 -4 -183 -11 -187 -6 -5 -6 -8 0
-8 7 0 10 -101 10 -285 0 -184 -3 -285 -10 -285 -6 0 -6 -3 0 -8 7 -4 11 -75
11 -187 0 -112 -4 -183 -11 -187 -6 -5 -6 -8 0 -8 7 0 10 -101 10 -285 0 -184
-3 -285 -10 -285 -6 0 -6 -3 0 -8 7 -4 11 -75 11 -187 0 -112 -4 -183 -11
-187 -6 -5 -6 -8 0 -8 12 0 14 -538 3 -556 -4 -6 -4 -14 0 -18 11 -12 9 -370
-3 -378 -6 -5 -7 -8 0 -8 7 0 10 -88 10 -251 0 -138 2 -254 5 -259 7 -11 102
-16 118 -6 7 4 12 4 12 -1 0 -4 247 -7 548 -5 l548 2 0 1586 c-1 871 1 1590 4
1597 5 13 90 17 90 4 0 -4 8 -4 17 2 10 5 26 5 40 0 13 -5 23 -5 23 -1 0 6 95
8 110 2 3 -1 10 -1 15 0 33 7 282 -3 335 -14 8 -1 36 -6 63 -11 26 -4 50 -11
53 -16 3 -5 14 -9 25 -9 41 0 164 -75 230 -140 72 -72 134 -181 164 -285 24
-85 33 -128 41 -195 3 -25 9 -71 13 -102 4 -31 8 -438 10 -905 1 -466 4 -875
7 -908 2 -33 4 -71 3 -85 -1 -31 -1 -39 4 -70 3 -14 8 -56 12 -95 4 -38 8 -72
10 -75 2 -3 6 -22 9 -42 5 -32 23 -100 55 -208 l7 -25 627 -3 c359 -1 627 2
627 7 0 5 -7 26 -16 47 -27 65 -73 235 -79 294 -2 18 -16 123 -22 165 -2 17
-6 147 -8 290 -3 143 -5 280 -6 305 0 25 0 50 1 55 1 13 1 451 -1 462 -1 4 -1
13 1 18 4 22 0 178 -5 183 -2 3 0 11 6 18 7 8 7 14 -1 19 -7 4 -7 12 0 26 7
13 7 25 1 38 -6 10 -8 21 -4 24 13 14 -4 568 -21 657 -2 14 -7 45 -10 70 -3
25 -8 55 -10 66 -2 12 -7 37 -10 55 -8 51 -12 68 -30 134 -9 33 -18 67 -21 75
-20 84 -116 298 -158 354 -4 6 -22 33 -40 60 -42 67 -176 202 -259 263 -36 27
-107 69 -156 94 -50 24 -91 47 -91 50 -1 4 7 9 17 12 29 10 166 90 182 107 3
3 30 24 60 47 78 59 178 165 242 258 57 81 148 252 148 277 0 8 4 18 9 24 8 9
30 69 32 89 1 6 5 17 10 26 4 9 10 27 13 40 3 13 12 53 21 89 18 71 20 80 29
155 4 28 9 57 12 66 13 46 18 233 17 724 0 504 -2 588 -18 705 -13 97 -16 111
-40 220 -10 41 -18 83 -18 93 -1 9 -5 17 -10 17 -4 0 -7 6 -6 13 1 6 0 19 -4
27 -3 8 -18 49 -33 90 -15 41 -35 89 -45 107 -10 17 -15 34 -12 37 4 3 1 6 -5
6 -7 0 -11 4 -9 8 3 11 -115 202 -125 202 -5 0 -8 4 -8 10 0 24 -145 167 -240
235 -30 22 -56 43 -58 47 -2 5 -7 8 -12 8 -4 0 -40 18 -79 40 -100 57 -292
131 -401 154 -14 3 -45 10 -70 16 -42 9 -116 22 -200 35 -20 3 -65 8 -100 12
-99 9 -2178 15 -2182 6z m1992 -1127 c89 -19 180 -59 227 -101 54 -48 92 -89
104 -115 7 -14 19 -32 25 -40 17 -20 71 -184 78 -235 3 -22 8 -51 12 -65 8
-31 13 -1161 5 -1175 -3 -5 -6 -28 -8 -50 -2 -22 -6 -51 -10 -65 -3 -14 -7
-27 -8 -30 -1 -7 -18 -82 -21 -98 -11 -56 -110 -215 -158 -253 -12 -9 -32 -26
-45 -38 -13 -12 -28 -21 -32 -21 -4 0 -14 -6 -21 -13 -22 -21 -140 -64 -194
-71 -16 -2 -40 -7 -54 -10 -24 -6 -124 -17 -145 -17 -5 0 -40 2 -77 3 -38 2
-69 -1 -71 -6 -2 -6 -9 -6 -17 -1 -19 12 -80 13 -80 2 0 -4 -5 -5 -12 -1 -17
11 -122 11 -130 0 -4 -6 -12 -6 -20 0 -7 5 -34 9 -60 8 -27 0 -48 2 -49 5 -3
19 -4 2378 -1 2389 4 11 74 13 366 9 198 -2 377 -7 396 -11z"/>
</g>
</svg>
