<svg width="15" height="15" viewBox="0 0 15 15" fill="none" xmlns="http://www.w3.org/2000/svg">
<path d="M14.1111 0.0698242H5.55557C5.34061 0.0698242 5.16667 0.243767 5.16667 0.458725C5.16667 0.673683 5.34061 0.847626 5.55557 0.847626H13.1723L0.613941 13.406C0.46202 13.5579 0.46202 13.804 0.613941 13.9559C0.689884 14.0318 0.789415 14.0698 0.88891 14.0698C0.988405 14.0698 1.0879 14.0318 1.16388 13.9559L13.7222 1.39752V9.01429C13.7222 9.22925 13.8961 9.40319 14.1111 9.40319C14.3261 9.40319 14.5 9.22925 14.5 9.01429V0.458725C14.5 0.243767 14.326 0.0698242 14.1111 0.0698242Z" fill="#405FF2"/>
</svg>
