<svg width="19" height="19" viewBox="0 0 19 19" fill="none" xmlns="http://www.w3.org/2000/svg">
<g clip-path="url(#clip0_1_4549)">
<path d="M10.8998 4.06996C10.8998 3.90996 10.8498 3.77996 10.7498 3.67996C10.6498 3.57996 10.5198 3.52996 10.3598 3.52996H4.71977C4.55977 3.52996 4.42977 3.57996 4.32977 3.67996C4.22977 3.77996 4.17977 3.90996 4.17977 4.06996V8.56996C4.17977 8.72996 4.22977 8.86996 4.32977 8.98996C4.42977 9.10996 4.55977 9.16996 4.71977 9.16996H10.3598C10.5198 9.16996 10.6498 9.10996 10.7498 8.98996C10.8498 8.86996 10.8998 8.72996 10.8998 8.56996V4.06996ZM9.75977 8.02996H5.25977V4.66996H9.75977V8.02996ZM17.3798 4.66996L15.0998 3.58996C14.9798 3.50996 14.8398 3.48996 14.6798 3.52996C14.5198 3.56996 14.4098 3.65996 14.3498 3.79996C14.2898 3.93996 14.2798 4.08996 14.3198 4.24996C14.3598 4.40996 14.4598 4.50996 14.6198 4.54996L15.4598 5.02996L15.3998 5.20996C15.3998 5.56996 15.5098 5.88996 15.7298 6.16996C15.9498 6.44996 16.2198 6.64996 16.5398 6.76996V13.61C16.5398 13.77 16.4798 13.91 16.3598 14.03C16.2398 14.15 16.1098 14.21 15.9698 14.21C15.8298 14.21 15.6998 14.15 15.5798 14.03C15.4598 13.91 15.3998 13.77 15.3998 13.61V9.10996C15.3998 8.46996 15.1698 7.88996 14.7098 7.36996C14.2498 6.84996 13.7398 6.52996 13.1798 6.40996V2.92996C13.1798 2.32996 12.9598 1.80996 12.5198 1.36996C12.0798 0.929962 11.5598 0.709961 10.9598 0.709961H4.17977C3.57977 0.709961 3.04977 0.929962 2.58977 1.36996C2.12977 1.80996 1.89977 2.32996 1.89977 2.92996V15.53L1.11977 15.95C0.879766 16.07 0.759766 16.23 0.759766 16.43V18.11C0.759766 18.27 0.819766 18.41 0.939766 18.53C1.05977 18.65 1.19977 18.71 1.35977 18.71H13.7198C13.8798 18.71 14.0098 18.65 14.1098 18.53C14.2098 18.41 14.2598 18.27 14.2598 18.11V16.43C14.2598 16.23 14.1598 16.07 13.9598 15.95L13.1798 15.53V7.54996C13.4598 7.66996 13.7098 7.87996 13.9298 8.17996C14.1498 8.47996 14.2598 8.78996 14.2598 9.10996V13.61C14.2598 14.09 14.4298 14.5 14.7698 14.84C15.1098 15.18 15.5098 15.35 15.9698 15.35C16.4298 15.35 16.8298 15.18 17.1698 14.84C17.5098 14.5 17.6798 14.09 17.6798 13.61V5.20996C17.6798 4.96996 17.5798 4.78996 17.3798 4.66996ZM13.1798 17.57H1.89977V16.79L2.73977 16.37C2.93977 16.29 3.03977 16.13 3.03977 15.89V2.92996C3.03977 2.64996 3.14977 2.39996 3.36977 2.17996C3.58977 1.95996 3.85977 1.84996 4.17977 1.84996H10.9598C11.2398 1.84996 11.4898 1.95996 11.7098 2.17996C11.9298 2.39996 12.0398 2.64996 12.0398 2.92996V15.89C12.0398 16.13 12.1398 16.29 12.3398 16.37L13.1798 16.79V17.57Z" fill="#050B20"/>
</g>
<defs>
<clipPath id="clip0_1_4549">
<rect width="18" height="18" fill="white" transform="matrix(1 0 0 -1 0.219727 18.71)"/>
</clipPath>
</defs>
</svg>
