<svg width="19" height="19" viewBox="0 0 19 19" fill="none" xmlns="http://www.w3.org/2000/svg">
<path d="M3.71969 2.38991C3.15969 2.38991 2.67969 2.58991 2.27969 2.98991C1.87969 3.38991 1.67969 3.87991 1.67969 4.45991C1.67969 5.03991 1.87969 5.52991 2.27969 5.92991C2.67969 6.32991 3.15969 6.52991 3.71969 6.52991C4.27969 6.52991 4.75969 6.32991 5.15969 5.92991C5.55969 5.52991 5.75969 5.03991 5.75969 4.45991C5.75969 3.87991 5.55969 3.38991 5.15969 2.98991C4.75969 2.58991 4.27969 2.38991 3.71969 2.38991ZM3.71969 3.52991C3.95969 3.52991 4.17969 3.61991 4.37969 3.79991C4.57969 3.97991 4.67969 4.19991 4.67969 4.45991C4.67969 4.71991 4.57969 4.93991 4.37969 5.11991C4.17969 5.29991 3.95969 5.38991 3.71969 5.38991C3.47969 5.38991 3.25969 5.29991 3.05969 5.11991C2.85969 4.93991 2.75969 4.71991 2.75969 4.45991C2.75969 4.19991 2.85969 3.97991 3.05969 3.79991C3.25969 3.61991 3.47969 3.52991 3.71969 3.52991ZM3.71969 12.8899C3.15969 12.8899 2.67969 13.0899 2.27969 13.4899C1.87969 13.8899 1.67969 14.3799 1.67969 14.9599C1.67969 15.5399 1.87969 16.0299 2.27969 16.4299C2.67969 16.8299 3.15969 17.0299 3.71969 17.0299C4.27969 17.0299 4.75969 16.8299 5.15969 16.4299C5.55969 16.0299 5.75969 15.5399 5.75969 14.9599C5.75969 14.3799 5.55969 13.8899 5.15969 13.4899C4.75969 13.0899 4.27969 12.8899 3.71969 12.8899ZM3.71969 14.0299C3.95969 14.0299 4.17969 14.1199 4.37969 14.2999C4.57969 14.4799 4.67969 14.6999 4.67969 14.9599C4.67969 15.2199 4.57969 15.4399 4.37969 15.6199C4.17969 15.7999 3.95969 15.8899 3.71969 15.8899C3.47969 15.8899 3.25969 15.7999 3.05969 15.6199C2.85969 15.4399 2.75969 15.2199 2.75969 14.9599C2.75969 14.6999 2.85969 14.4799 3.05969 14.2999C3.25969 14.1199 3.47969 14.0299 3.71969 14.0299ZM9.71969 2.38991C9.15969 2.38991 8.67969 2.58991 8.27969 2.98991C7.87969 3.38991 7.67969 3.87991 7.67969 4.45991C7.67969 5.03991 7.87969 5.52991 8.27969 5.92991C8.67969 6.32991 9.15969 6.52991 9.71969 6.52991C10.2797 6.52991 10.7597 6.32991 11.1597 5.92991C11.5597 5.52991 11.7597 5.03991 11.7597 4.45991C11.7597 3.87991 11.5597 3.38991 11.1597 2.98991C10.7597 2.58991 10.2797 2.38991 9.71969 2.38991ZM9.71969 3.52991C9.95969 3.52991 10.1797 3.61991 10.3797 3.79991C10.5797 3.97991 10.6797 4.19991 10.6797 4.45991C10.6797 4.71991 10.5797 4.93991 10.3797 5.11991C10.1797 5.29991 9.95969 5.38991 9.71969 5.38991C9.47969 5.38991 9.25969 5.29991 9.05969 5.11991C8.85969 4.93991 8.75969 4.71991 8.75969 4.45991C8.75969 4.19991 8.85969 3.97991 9.05969 3.79991C9.25969 3.61991 9.47969 3.52991 9.71969 3.52991ZM9.71969 12.8899C9.15969 12.8899 8.67969 13.0899 8.27969 13.4899C7.87969 13.8899 7.67969 14.3799 7.67969 14.9599C7.67969 15.5399 7.87969 16.0299 8.27969 16.4299C8.67969 16.8299 9.15969 17.0299 9.71969 17.0299C10.2797 17.0299 10.7597 16.8299 11.1597 16.4299C11.5597 16.0299 11.7597 15.5399 11.7597 14.9599C11.7597 14.3799 11.5597 13.8899 11.1597 13.4899C10.7597 13.0899 10.2797 12.8899 9.71969 12.8899ZM9.71969 14.0299C9.95969 14.0299 10.1797 14.1199 10.3797 14.2999C10.5797 14.4799 10.6797 14.6999 10.6797 14.9599C10.6797 15.2199 10.5797 15.4399 10.3797 15.6199C10.1797 15.7999 9.95969 15.8899 9.71969 15.8899C9.47969 15.8899 9.25969 15.7999 9.05969 15.6199C8.85969 15.4399 8.75969 15.2199 8.75969 14.9599C8.75969 14.6999 8.85969 14.4799 9.05969 14.2999C9.25969 14.1199 9.47969 14.0299 9.71969 14.0299ZM15.7197 2.38991C15.1597 2.38991 14.6797 2.58991 14.2797 2.98991C13.8797 3.38991 13.6797 3.87991 13.6797 4.45991C13.6797 5.03991 13.8797 5.52991 14.2797 5.92991C14.6797 6.32991 15.1597 6.52991 15.7197 6.52991C16.2797 6.52991 16.7597 6.32991 17.1597 5.92991C17.5597 5.52991 17.7597 5.03991 17.7597 4.45991C17.7597 3.87991 17.5597 3.38991 17.1597 2.98991C16.7597 2.58991 16.2797 2.38991 15.7197 2.38991ZM15.7197 3.52991C15.9597 3.52991 16.1797 3.61991 16.3797 3.79991C16.5797 3.97991 16.6797 4.19991 16.6797 4.45991C16.6797 4.71991 16.5797 4.93991 16.3797 5.11991C16.1797 5.29991 15.9597 5.38991 15.7197 5.38991C15.4797 5.38991 15.2597 5.29991 15.0597 5.11991C14.8597 4.93991 14.7597 4.71991 14.7597 4.45991C14.7597 4.19991 14.8597 3.97991 15.0597 3.79991C15.2597 3.61991 15.4797 3.52991 15.7197 3.52991ZM15.7197 12.8899C15.1597 12.8899 14.6797 13.0899 14.2797 13.4899C13.8797 13.8899 13.6797 14.3799 13.6797 14.9599C13.6797 15.5399 13.8797 16.0299 14.2797 16.4299C14.6797 16.8299 15.1597 17.0299 15.7197 17.0299C16.2797 17.0299 16.7597 16.8299 17.1597 16.4299C17.5597 16.0299 17.7597 15.5399 17.7597 14.9599C17.7597 14.3799 17.5597 13.8899 17.1597 13.4899C16.7597 13.0899 16.2797 12.8899 15.7197 12.8899ZM15.7197 14.0299C15.9597 14.0299 16.1797 14.1199 16.3797 14.2999C16.5797 14.4799 16.6797 14.6999 16.6797 14.9599C16.6797 15.2199 16.5797 15.4399 16.3797 15.6199C16.1797 15.7999 15.9597 15.8899 15.7197 15.8899C15.4797 15.8899 15.2597 15.7999 15.0597 15.6199C14.8597 15.4399 14.7597 15.2199 14.7597 14.9599C14.7597 14.6999 14.8597 14.4799 15.0597 14.2999C15.2597 14.1199 15.4797 14.0299 15.7197 14.0299ZM3.17969 5.92991V13.4299C3.17969 13.5899 3.22969 13.7299 3.32969 13.8499C3.42969 13.9699 3.55969 14.0299 3.71969 14.0299C3.87969 14.0299 4.00969 13.9699 4.10969 13.8499C4.20969 13.7299 4.25969 13.6099 4.25969 13.4899V5.92991C4.25969 5.80991 4.20969 5.68991 4.10969 5.56991C4.00969 5.44991 3.87969 5.38991 3.71969 5.38991C3.55969 5.38991 3.42969 5.44991 3.32969 5.56991C3.22969 5.68991 3.17969 5.80991 3.17969 5.92991ZM9.17969 5.92991V13.4299C9.17969 13.5899 9.22969 13.7299 9.32969 13.8499C9.42969 13.9699 9.55969 14.0299 9.71969 14.0299C9.87969 14.0299 10.0097 13.9699 10.1097 13.8499C10.2097 13.7299 10.2597 13.6099 10.2597 13.4899V5.92991C10.2597 5.80991 10.2097 5.68991 10.1097 5.56991C10.0097 5.44991 9.87969 5.38991 9.71969 5.38991C9.55969 5.38991 9.42969 5.44991 9.32969 5.56991C9.22969 5.68991 9.17969 5.80991 9.17969 5.92991ZM15.1797 5.92991V8.92991C15.1797 9.00991 15.1597 9.06991 15.1197 9.10991C15.0797 9.14991 15.0397 9.16991 14.9997 9.16991H3.71969C3.55969 9.16991 3.42969 9.21991 3.32969 9.31991C3.22969 9.41991 3.17969 9.54991 3.17969 9.70991C3.17969 9.86991 3.22969 9.99991 3.32969 10.0999C3.42969 10.1999 3.55969 10.2499 3.71969 10.2499H14.9997C15.3597 10.2499 15.6597 10.1299 15.8997 9.88991C16.1397 9.64991 16.2597 9.32991 16.2597 8.92991V5.98991C16.2597 5.82991 16.2097 5.68991 16.1097 5.56991C16.0097 5.44991 15.8797 5.38991 15.7197 5.38991C15.5597 5.38991 15.4297 5.44991 15.3297 5.56991C15.2297 5.68991 15.1797 5.80991 15.1797 5.92991Z" fill="#050B20"/>
</svg>
