<svg width="199" height="61" viewBox="0 0 199 61" fill="none" xmlns="http://www.w3.org/2000/svg">
<rect x="0.189941" y="0.439941" width="198.8" height="60" rx="16" fill="white" fill-opacity="0.07"/>
<path d="M40.7173 30.6997C40.7173 30.7974 40.5708 33.6782 43.7446 35.1919C43.1587 36.9985 41.1079 41.0024 38.7153 41.0024C37.3481 41.0024 36.5669 40.1235 35.0044 40.1235C33.3931 40.1235 32.5142 41.0024 31.2935 41.0024C28.9497 41.1001 26.7036 36.7056 26.0688 34.8989C25.5806 33.5317 25.3853 32.2134 25.3853 30.9438C25.3853 26.5981 28.2661 24.4985 31.0005 24.4497C32.3188 24.4497 33.979 25.3774 34.7114 25.3774C35.395 25.3774 37.2993 24.2544 39.0571 24.4009C40.8638 24.5474 42.231 25.231 43.1587 26.5493C41.5474 27.5747 40.7173 28.8931 40.7173 30.6997ZM37.9829 22.6919C37.0063 23.8149 35.8345 24.4497 34.5649 24.3521C34.4673 23.0337 34.9556 21.813 35.8345 20.8364C36.6157 19.9575 37.9829 19.2251 39.1548 19.1274C39.1548 19.6646 39.3013 21.1294 37.9829 22.6919Z" fill="white"/>
<a href="https://www.figma.com/design/PzQUNVEIeMrv8HjdXbjYra?node-id=19-2">
<rect fill="black" fill-opacity="0" y="-1.875" width="18.75" height="28.75"/>
</a>
<path d="M68.0779 24.4399V16.0399H70.6579C72.1379 16.0399 73.2259 16.4159 73.9219 17.1679C74.6259 17.9199 74.9779 18.9519 74.9779 20.2639C74.9779 21.5519 74.6259 22.5719 73.9219 23.3239C73.2259 24.0679 72.1379 24.4399 70.6579 24.4399H68.0779ZM69.0859 23.5999H70.6339C71.4499 23.5999 72.0979 23.4679 72.5779 23.2039C73.0659 22.9319 73.4139 22.5479 73.6219 22.0519C73.8299 21.5479 73.9339 20.9519 73.9339 20.2639C73.9339 19.5599 73.8299 18.9559 73.6219 18.4519C73.4139 17.9479 73.0659 17.5599 72.5779 17.2879C72.0979 17.0159 71.4499 16.8799 70.6339 16.8799H69.0859V23.5999ZM79.0854 24.5839C78.5254 24.5839 78.0214 24.4559 77.5734 24.1999C77.1254 23.9439 76.7694 23.5839 76.5054 23.1199C76.2494 22.6479 76.1214 22.0959 76.1214 21.4639C76.1214 20.8319 76.2534 20.2839 76.5174 19.8199C76.7814 19.3479 77.1374 18.9839 77.5854 18.7279C78.0414 18.4719 78.5494 18.3439 79.1094 18.3439C79.6694 18.3439 80.1734 18.4719 80.6214 18.7279C81.0694 18.9839 81.4214 19.3479 81.6774 19.8199C81.9414 20.2839 82.0734 20.8319 82.0734 21.4639C82.0734 22.0959 81.9414 22.6479 81.6774 23.1199C81.4134 23.5839 81.0534 23.9439 80.5974 24.1999C80.1494 24.4559 79.6454 24.5839 79.0854 24.5839ZM79.0854 23.7199C79.4294 23.7199 79.7494 23.6359 80.0454 23.4679C80.3414 23.2999 80.5814 23.0479 80.7654 22.7119C80.9494 22.3759 81.0414 21.9599 81.0414 21.4639C81.0414 20.9679 80.9494 20.5519 80.7654 20.2159C80.5894 19.8799 80.3534 19.6279 80.0574 19.4599C79.7614 19.2919 79.4454 19.2079 79.1094 19.2079C78.7654 19.2079 78.4454 19.2919 78.1494 19.4599C77.8534 19.6279 77.6134 19.8799 77.4294 20.2159C77.2454 20.5519 77.1534 20.9679 77.1534 21.4639C77.1534 21.9599 77.2454 22.3759 77.4294 22.7119C77.6134 23.0479 77.8494 23.2999 78.1374 23.4679C78.4334 23.6359 78.7494 23.7199 79.0854 23.7199ZM84.4523 24.4399L82.7123 18.4879H83.7203L84.9803 23.1559L86.3723 18.4879H87.5123L88.9163 23.1559L90.1643 18.4879H91.1843L89.4443 24.4399H88.4123L86.9483 19.5319L85.4843 24.4399H84.4523ZM92.2992 24.4399V18.4879H93.2112L93.2712 19.5559C93.4632 19.1799 93.7392 18.8839 94.0992 18.6679C94.4592 18.4519 94.8672 18.3439 95.3232 18.3439C96.0272 18.3439 96.5872 18.5599 97.0032 18.9919C97.4272 19.4159 97.6392 20.0719 97.6392 20.9599V24.4399H96.6312V21.0679C96.6312 19.8279 96.1192 19.2079 95.0952 19.2079C94.5832 19.2079 94.1552 19.3959 93.8112 19.7719C93.4752 20.1399 93.3072 20.6679 93.3072 21.3559V24.4399H92.2992ZM99.1664 24.4399V15.7999H100.174V24.4399H99.1664ZM104.539 24.5839C103.979 24.5839 103.475 24.4559 103.027 24.1999C102.579 23.9439 102.223 23.5839 101.959 23.1199C101.703 22.6479 101.575 22.0959 101.575 21.4639C101.575 20.8319 101.707 20.2839 101.971 19.8199C102.235 19.3479 102.591 18.9839 103.039 18.7279C103.495 18.4719 104.003 18.3439 104.563 18.3439C105.123 18.3439 105.627 18.4719 106.075 18.7279C106.523 18.9839 106.875 19.3479 107.131 19.8199C107.395 20.2839 107.527 20.8319 107.527 21.4639C107.527 22.0959 107.395 22.6479 107.131 23.1199C106.867 23.5839 106.507 23.9439 106.051 24.1999C105.603 24.4559 105.099 24.5839 104.539 24.5839ZM104.539 23.7199C104.883 23.7199 105.203 23.6359 105.499 23.4679C105.795 23.2999 106.035 23.0479 106.219 22.7119C106.403 22.3759 106.495 21.9599 106.495 21.4639C106.495 20.9679 106.403 20.5519 106.219 20.2159C106.043 19.8799 105.807 19.6279 105.511 19.4599C105.215 19.2919 104.899 19.2079 104.563 19.2079C104.219 19.2079 103.899 19.2919 103.603 19.4599C103.307 19.6279 103.067 19.8799 102.883 20.2159C102.699 20.5519 102.607 20.9679 102.607 21.4639C102.607 21.9599 102.699 22.3759 102.883 22.7119C103.067 23.0479 103.303 23.2999 103.591 23.4679C103.887 23.6359 104.203 23.7199 104.539 23.7199ZM110.908 24.5839C110.412 24.5839 110 24.4999 109.672 24.3319C109.344 24.1639 109.1 23.9399 108.94 23.6599C108.78 23.3799 108.7 23.0759 108.7 22.7479C108.7 22.1399 108.932 21.6719 109.396 21.3439C109.86 21.0159 110.492 20.8519 111.292 20.8519H112.9V20.7799C112.9 20.2599 112.764 19.8679 112.492 19.6039C112.22 19.3319 111.856 19.1959 111.4 19.1959C111.008 19.1959 110.668 19.2959 110.38 19.4959C110.1 19.6879 109.924 19.9719 109.852 20.3479H108.82C108.86 19.9159 109.004 19.5519 109.252 19.2559C109.508 18.9599 109.824 18.7359 110.2 18.5839C110.576 18.4239 110.976 18.3439 111.4 18.3439C112.232 18.3439 112.856 18.5679 113.272 19.0159C113.696 19.4559 113.908 20.0439 113.908 20.7799V24.4399H113.008L112.948 23.3719C112.78 23.7079 112.532 23.9959 112.204 24.2359C111.884 24.4679 111.452 24.5839 110.908 24.5839ZM111.064 23.7319C111.448 23.7319 111.776 23.6319 112.048 23.4319C112.328 23.2319 112.54 22.9719 112.684 22.6519C112.828 22.3319 112.9 21.9959 112.9 21.6439V21.6319H111.376C110.784 21.6319 110.364 21.7359 110.116 21.9439C109.876 22.1439 109.756 22.3959 109.756 22.6999C109.756 23.0119 109.868 23.2639 110.092 23.4559C110.324 23.6399 110.648 23.7319 111.064 23.7319ZM118.12 24.5839C117.528 24.5839 117.008 24.4479 116.56 24.1759C116.12 23.9039 115.776 23.5319 115.528 23.0599C115.288 22.5879 115.168 22.0519 115.168 21.4519C115.168 20.8519 115.292 20.3199 115.54 19.8559C115.788 19.3839 116.132 19.0159 116.572 18.7519C117.012 18.4799 117.532 18.3439 118.132 18.3439C118.62 18.3439 119.052 18.4439 119.428 18.6439C119.804 18.8439 120.096 19.1239 120.304 19.4839V15.7999H121.312V24.4399H120.4L120.304 23.4559C120.112 23.7439 119.836 24.0039 119.476 24.2359C119.116 24.4679 118.664 24.5839 118.12 24.5839ZM118.228 23.7079C118.628 23.7079 118.98 23.6159 119.284 23.4319C119.596 23.2399 119.836 22.9759 120.004 22.6399C120.18 22.3039 120.268 21.9119 120.268 21.4639C120.268 21.0159 120.18 20.6239 120.004 20.2879C119.836 19.9519 119.596 19.6919 119.284 19.5079C118.98 19.3159 118.628 19.2199 118.228 19.2199C117.836 19.2199 117.484 19.3159 117.172 19.5079C116.868 19.6919 116.628 19.9519 116.452 20.2879C116.284 20.6239 116.2 21.0159 116.2 21.4639C116.2 21.9119 116.284 22.3039 116.452 22.6399C116.628 22.9759 116.868 23.2399 117.172 23.4319C117.484 23.6159 117.836 23.7079 118.228 23.7079ZM128.843 24.5839C128.283 24.5839 127.779 24.4559 127.331 24.1999C126.883 23.9439 126.527 23.5839 126.263 23.1199C126.007 22.6479 125.879 22.0959 125.879 21.4639C125.879 20.8319 126.011 20.2839 126.275 19.8199C126.539 19.3479 126.895 18.9839 127.343 18.7279C127.799 18.4719 128.307 18.3439 128.867 18.3439C129.427 18.3439 129.931 18.4719 130.379 18.7279C130.827 18.9839 131.179 19.3479 131.435 19.8199C131.699 20.2839 131.831 20.8319 131.831 21.4639C131.831 22.0959 131.699 22.6479 131.435 23.1199C131.171 23.5839 130.811 23.9439 130.355 24.1999C129.907 24.4559 129.403 24.5839 128.843 24.5839ZM128.843 23.7199C129.187 23.7199 129.507 23.6359 129.803 23.4679C130.099 23.2999 130.339 23.0479 130.523 22.7119C130.707 22.3759 130.799 21.9599 130.799 21.4639C130.799 20.9679 130.707 20.5519 130.523 20.2159C130.347 19.8799 130.111 19.6279 129.815 19.4599C129.519 19.2919 129.203 19.2079 128.867 19.2079C128.523 19.2079 128.203 19.2919 127.907 19.4599C127.611 19.6279 127.371 19.8799 127.187 20.2159C127.003 20.5519 126.911 20.9679 126.911 21.4639C126.911 21.9599 127.003 22.3759 127.187 22.7119C127.371 23.0479 127.607 23.2999 127.895 23.4679C128.191 23.6359 128.507 23.7199 128.843 23.7199ZM133.233 24.4399V18.4879H134.145L134.205 19.5559C134.397 19.1799 134.673 18.8839 135.033 18.6679C135.393 18.4519 135.801 18.3439 136.257 18.3439C136.961 18.3439 137.521 18.5599 137.937 18.9919C138.361 19.4159 138.573 20.0719 138.573 20.9599V24.4399H137.565V21.0679C137.565 19.8279 137.053 19.2079 136.029 19.2079C135.517 19.2079 135.089 19.3959 134.745 19.7719C134.409 20.1399 134.241 20.6679 134.241 21.3559V24.4399H133.233ZM145.628 24.4399C145.084 24.4399 144.656 24.3079 144.344 24.0439C144.032 23.7799 143.876 23.3039 143.876 22.6159V19.3399H142.844V18.4879H143.876L144.008 17.0599H144.884V18.4879H146.636V19.3399H144.884V22.6159C144.884 22.9919 144.96 23.2479 145.112 23.3839C145.264 23.5119 145.532 23.5759 145.916 23.5759H146.54V24.4399H145.628ZM147.916 24.4399V15.7999H148.924V19.5079C149.124 19.1399 149.408 18.8559 149.776 18.6559C150.144 18.4479 150.544 18.3439 150.976 18.3439C151.664 18.3439 152.216 18.5599 152.632 18.9919C153.048 19.4159 153.256 20.0719 153.256 20.9599V24.4399H152.26V21.0679C152.26 19.8279 151.76 19.2079 150.76 19.2079C150.24 19.2079 149.804 19.3959 149.452 19.7719C149.1 20.1399 148.924 20.6679 148.924 21.3559V24.4399H147.916ZM157.46 24.5839C156.892 24.5839 156.388 24.4559 155.948 24.1999C155.508 23.9359 155.16 23.5719 154.904 23.1079C154.656 22.6439 154.532 22.0959 154.532 21.4639C154.532 20.8399 154.656 20.2959 154.904 19.8319C155.152 19.3599 155.496 18.9959 155.936 18.7399C156.384 18.4759 156.9 18.3439 157.484 18.3439C158.06 18.3439 158.556 18.4759 158.972 18.7399C159.396 18.9959 159.72 19.3359 159.944 19.7599C160.168 20.1839 160.28 20.6399 160.28 21.1279C160.28 21.2159 160.276 21.3039 160.268 21.3919C160.268 21.4799 160.268 21.5799 160.268 21.6919H155.528C155.552 22.1479 155.656 22.5279 155.84 22.8319C156.032 23.1279 156.268 23.3519 156.548 23.5039C156.836 23.6559 157.14 23.7319 157.46 23.7319C157.876 23.7319 158.224 23.6359 158.504 23.4439C158.784 23.2519 158.988 22.9919 159.116 22.6639H160.112C159.952 23.2159 159.644 23.6759 159.188 24.0439C158.74 24.4039 158.164 24.5839 157.46 24.5839ZM157.46 19.1959C156.98 19.1959 156.552 19.3439 156.176 19.6399C155.808 19.9279 155.596 20.3519 155.54 20.9119H159.284C159.26 20.3759 159.076 19.9559 158.732 19.6519C158.388 19.3479 157.964 19.1959 157.46 19.1959Z" fill="white"/>
<a href="https://www.figma.com/design/PzQUNVEIeMrv8HjdXbjYra?node-id=19-2">
<rect fill="black" fill-opacity="0" y="-1.812" width="93.5936" height="15.624"/>
</a>
<path d="M67.5799 44.4399L71.4499 33.9399H73.1899L77.0299 44.4399H75.3499L74.4499 41.8749H70.1599L69.2599 44.4399H67.5799ZM70.6099 40.6149H73.9999L72.3049 35.8299L70.6099 40.6149ZM78.4342 47.7399V36.9999H79.8592L80.0242 38.1549C80.2642 37.8049 80.5942 37.4949 81.0142 37.2249C81.4342 36.9549 81.9742 36.8199 82.6342 36.8199C83.3542 36.8199 83.9892 36.9899 84.5392 37.3299C85.0892 37.6699 85.5192 38.1349 85.8292 38.7249C86.1492 39.3149 86.3092 39.9849 86.3092 40.7349C86.3092 41.4849 86.1492 42.1549 85.8292 42.7449C85.5192 43.3249 85.0892 43.7849 84.5392 44.1249C83.9892 44.4549 83.3492 44.6199 82.6192 44.6199C82.0392 44.6199 81.5242 44.5049 81.0742 44.2749C80.6342 44.0449 80.2842 43.7199 80.0242 43.2999V47.7399H78.4342ZM82.3492 43.2399C83.0292 43.2399 83.5892 43.0099 84.0292 42.5499C84.4692 42.0799 84.6892 41.4699 84.6892 40.7199C84.6892 40.2299 84.5892 39.7949 84.3892 39.4149C84.1892 39.0349 83.9142 38.7399 83.5642 38.5299C83.2142 38.3099 82.8092 38.1999 82.3492 38.1999C81.6692 38.1999 81.1092 38.4349 80.6692 38.9049C80.2392 39.3749 80.0242 39.9799 80.0242 40.7199C80.0242 41.4699 80.2392 42.0799 80.6692 42.5499C81.1092 43.0099 81.6692 43.2399 82.3492 43.2399ZM88.0289 47.7399V36.9999H89.4539L89.6189 38.1549C89.8589 37.8049 90.1889 37.4949 90.6089 37.2249C91.0289 36.9549 91.5689 36.8199 92.2289 36.8199C92.9489 36.8199 93.5839 36.9899 94.1339 37.3299C94.6839 37.6699 95.1139 38.1349 95.4239 38.7249C95.7439 39.3149 95.9039 39.9849 95.9039 40.7349C95.9039 41.4849 95.7439 42.1549 95.4239 42.7449C95.1139 43.3249 94.6839 43.7849 94.1339 44.1249C93.5839 44.4549 92.9439 44.6199 92.2139 44.6199C91.6339 44.6199 91.1189 44.5049 90.6689 44.2749C90.2289 44.0449 89.8789 43.7199 89.6189 43.2999V47.7399H88.0289ZM91.9439 43.2399C92.6239 43.2399 93.1839 43.0099 93.6239 42.5499C94.0639 42.0799 94.2839 41.4699 94.2839 40.7199C94.2839 40.2299 94.1839 39.7949 93.9839 39.4149C93.7839 39.0349 93.5089 38.7399 93.1589 38.5299C92.8089 38.3099 92.4039 38.1999 91.9439 38.1999C91.2639 38.1999 90.7039 38.4349 90.2639 38.9049C89.8339 39.3749 89.6189 39.9799 89.6189 40.7199C89.6189 41.4699 89.8339 42.0799 90.2639 42.5499C90.7039 43.0099 91.2639 43.2399 91.9439 43.2399ZM97.6237 44.4399V33.6399H99.2137V44.4399H97.6237ZM104.707 44.6199C103.977 44.6199 103.327 44.4599 102.757 44.1399C102.197 43.8099 101.757 43.3549 101.437 42.7749C101.117 42.1949 100.957 41.5199 100.957 40.7499C100.957 39.9699 101.112 39.2849 101.422 38.6949C101.742 38.1049 102.182 37.6449 102.742 37.3149C103.312 36.9849 103.972 36.8199 104.722 36.8199C105.452 36.8199 106.087 36.9849 106.627 37.3149C107.167 37.6349 107.587 38.0649 107.887 38.6049C108.187 39.1449 108.337 39.7399 108.337 40.3899C108.337 40.4899 108.332 40.5999 108.322 40.7199C108.322 40.8299 108.317 40.9549 108.307 41.0949H102.517C102.567 41.8149 102.802 42.3649 103.222 42.7449C103.652 43.1149 104.147 43.2999 104.707 43.2999C105.157 43.2999 105.532 43.1999 105.832 42.9999C106.142 42.7899 106.372 42.5099 106.522 42.1599H108.112C107.912 42.8599 107.512 43.4449 106.912 43.9149C106.322 44.3849 105.587 44.6199 104.707 44.6199ZM104.707 38.1249C104.177 38.1249 103.707 38.2849 103.297 38.6049C102.887 38.9149 102.637 39.3849 102.547 40.0149H106.747C106.717 39.4349 106.512 38.9749 106.132 38.6349C105.752 38.2949 105.277 38.1249 104.707 38.1249ZM117.291 44.6199C116.521 44.6199 115.846 44.4849 115.266 44.2149C114.686 43.9449 114.231 43.5599 113.901 43.0599C113.581 42.5599 113.416 41.9649 113.406 41.2749H115.086C115.096 41.8349 115.291 42.3099 115.671 42.6999C116.051 43.0899 116.586 43.2849 117.276 43.2849C117.886 43.2849 118.361 43.1399 118.701 42.8499C119.051 42.5499 119.226 42.1699 119.226 41.7099C119.226 41.3399 119.141 41.0399 118.971 40.8099C118.811 40.5799 118.586 40.3899 118.296 40.2399C118.016 40.0899 117.691 39.9549 117.321 39.8349C116.951 39.7149 116.561 39.5849 116.151 39.4449C115.341 39.1749 114.731 38.8249 114.321 38.3949C113.921 37.9649 113.721 37.3999 113.721 36.6999C113.711 36.1099 113.846 35.5949 114.126 35.1549C114.416 34.7149 114.816 34.3749 115.326 34.1349C115.846 33.8849 116.451 33.7599 117.141 33.7599C117.821 33.7599 118.416 33.8849 118.926 34.1349C119.446 34.3849 119.851 34.7349 120.141 35.1849C120.431 35.6249 120.581 36.1399 120.591 36.7299H118.911C118.911 36.4599 118.841 36.2049 118.701 35.9649C118.561 35.7149 118.356 35.5099 118.086 35.3499C117.816 35.1899 117.486 35.1099 117.096 35.1099C116.596 35.0999 116.181 35.2249 115.851 35.4849C115.531 35.7449 115.371 36.1049 115.371 36.5649C115.371 36.9749 115.491 37.2899 115.731 37.5099C115.971 37.7299 116.301 37.9149 116.721 38.0649C117.141 38.2049 117.621 38.3699 118.161 38.5599C118.681 38.7299 119.146 38.9349 119.556 39.1749C119.966 39.4149 120.291 39.7299 120.531 40.1199C120.781 40.5099 120.906 41.0049 120.906 41.6049C120.906 42.1349 120.771 42.6299 120.501 43.0899C120.231 43.5399 119.826 43.9099 119.286 44.1999C118.746 44.4799 118.081 44.6199 117.291 44.6199ZM125.705 44.4399C124.975 44.4399 124.395 44.2649 123.965 43.9149C123.535 43.5549 123.32 42.9199 123.32 42.0099V38.3349H122.045V36.9999H123.32L123.515 35.1099H124.91V36.9999H127.01V38.3349H124.91V42.0099C124.91 42.4199 124.995 42.7049 125.165 42.8649C125.345 43.0149 125.65 43.0899 126.08 43.0899H126.935V44.4399H125.705ZM131.939 44.6199C131.229 44.6199 130.589 44.4599 130.019 44.1399C129.459 43.8099 129.014 43.3549 128.684 42.7749C128.354 42.1849 128.189 41.4999 128.189 40.7199C128.189 39.9399 128.354 39.2599 128.684 38.6799C129.024 38.0899 129.479 37.6349 130.049 37.3149C130.619 36.9849 131.254 36.8199 131.954 36.8199C132.664 36.8199 133.299 36.9849 133.859 37.3149C134.429 37.6349 134.879 38.0899 135.209 38.6799C135.549 39.2599 135.719 39.9399 135.719 40.7199C135.719 41.4999 135.549 42.1849 135.209 42.7749C134.879 43.3549 134.429 43.8099 133.859 44.1399C133.289 44.4599 132.649 44.6199 131.939 44.6199ZM131.939 43.2549C132.319 43.2549 132.669 43.1599 132.989 42.9699C133.319 42.7799 133.584 42.4999 133.784 42.1299C133.984 41.7499 134.084 41.2799 134.084 40.7199C134.084 40.1599 133.984 39.6949 133.784 39.3249C133.594 38.9449 133.334 38.6599 133.004 38.4699C132.684 38.2799 132.334 38.1849 131.954 38.1849C131.574 38.1849 131.219 38.2799 130.889 38.4699C130.569 38.6599 130.309 38.9449 130.109 39.3249C129.909 39.6949 129.809 40.1599 129.809 40.7199C129.809 41.2799 129.909 41.7499 130.109 42.1299C130.309 42.4999 130.569 42.7799 130.889 42.9699C131.209 43.1599 131.559 43.2549 131.939 43.2549ZM137.438 44.4399V36.9999H138.863L138.998 38.4099C139.258 37.9199 139.618 37.5349 140.078 37.2549C140.548 36.9649 141.113 36.8199 141.773 36.8199V38.4849H141.338C140.898 38.4849 140.503 38.5599 140.153 38.7099C139.813 38.8499 139.538 39.0949 139.328 39.4449C139.128 39.7849 139.028 40.2599 139.028 40.8699V44.4399H137.438ZM146.411 44.6199C145.681 44.6199 145.031 44.4599 144.461 44.1399C143.901 43.8099 143.461 43.3549 143.141 42.7749C142.821 42.1949 142.661 41.5199 142.661 40.7499C142.661 39.9699 142.816 39.2849 143.126 38.6949C143.446 38.1049 143.886 37.6449 144.446 37.3149C145.016 36.9849 145.676 36.8199 146.426 36.8199C147.156 36.8199 147.791 36.9849 148.331 37.3149C148.871 37.6349 149.291 38.0649 149.591 38.6049C149.891 39.1449 150.041 39.7399 150.041 40.3899C150.041 40.4899 150.036 40.5999 150.026 40.7199C150.026 40.8299 150.021 40.9549 150.011 41.0949H144.221C144.271 41.8149 144.506 42.3649 144.926 42.7449C145.356 43.1149 145.851 43.2999 146.411 43.2999C146.861 43.2999 147.236 43.1999 147.536 42.9999C147.846 42.7899 148.076 42.5099 148.226 42.1599H149.816C149.616 42.8599 149.216 43.4449 148.616 43.9149C148.026 44.3849 147.291 44.6199 146.411 44.6199ZM146.411 38.1249C145.881 38.1249 145.411 38.2849 145.001 38.6049C144.591 38.9149 144.341 39.3849 144.251 40.0149H148.451C148.421 39.4349 148.216 38.9749 147.836 38.6349C147.456 38.2949 146.981 38.1249 146.411 38.1249Z" fill="white"/>
<a href="https://www.figma.com/design/PzQUNVEIeMrv8HjdXbjYra?node-id=19-2">
<rect fill="black" fill-opacity="0" y="-2.265" width="83.4963" height="19.53"/>
</a>
</svg>
