<svg width="199" height="61" viewBox="0 0 199 61" fill="none" xmlns="http://www.w3.org/2000/svg">
<rect x="0.189941" y="0.439941" width="198.8" height="60" rx="16" fill="white" fill-opacity="0.07"/>
<path d="M41.0591 29.0396L30.2681 18.1997L43.9888 26.1099L41.0591 29.0396ZM27.4849 17.5649L39.9849 30.0649L27.4849 42.5649C26.8501 42.272 26.4106 41.6372 26.4106 40.856V19.3228C26.4106 18.5415 26.8501 17.9067 27.4849 17.5649ZM48.2368 28.6001C49.1646 29.2837 49.1646 30.895 48.2856 31.5786L45.356 33.2388L42.1333 30.0649L45.356 26.9399L48.2368 28.6001ZM30.2681 41.9302L41.0591 31.1392L43.9888 34.0688L30.2681 41.9302Z" fill="white"/>
<a href="https://www.figma.com/design/PzQUNVEIeMrv8HjdXbjYra?node-id=19-2">
<rect fill="black" fill-opacity="0" y="-1.875" width="25" height="28.75"/>
</a>
<path d="M71.6899 24.5839C70.9059 24.5839 70.2179 24.4039 69.6259 24.0439C69.0339 23.6759 68.5739 23.1679 68.2459 22.5199C67.9179 21.8639 67.7539 21.1079 67.7539 20.2519C67.7539 19.3959 67.9179 18.6399 68.2459 17.9839C68.5819 17.3279 69.0539 16.8159 69.6619 16.4479C70.2779 16.0799 71.0019 15.8959 71.8339 15.8959C72.7779 15.8959 73.5619 16.1239 74.1859 16.5799C74.8179 17.0359 75.2259 17.6639 75.4099 18.4639H74.2459C74.1339 17.9599 73.8659 17.5599 73.4419 17.2639C73.0259 16.9679 72.4899 16.8199 71.8339 16.8199C71.2179 16.8199 70.6819 16.9599 70.2259 17.2399C69.7699 17.5119 69.4139 17.9039 69.1579 18.4159C68.9099 18.9279 68.7859 19.5399 68.7859 20.2519C68.7859 20.9639 68.9099 21.5759 69.1579 22.0879C69.4059 22.5999 69.7499 22.9959 70.1899 23.2759C70.6299 23.5479 71.1419 23.6839 71.7259 23.6839C72.6219 23.6839 73.2979 23.4239 73.7539 22.9039C74.2099 22.3759 74.4699 21.6559 74.5339 20.7439H72.1099V19.9519H75.5659V24.4399H74.6419L74.5579 23.0599C74.2539 23.5479 73.8819 23.9239 73.4419 24.1879C73.0019 24.4519 72.4179 24.5839 71.6899 24.5839ZM79.776 24.5839C79.208 24.5839 78.704 24.4559 78.264 24.1999C77.824 23.9359 77.476 23.5719 77.22 23.1079C76.972 22.6439 76.848 22.0959 76.848 21.4639C76.848 20.8399 76.972 20.2959 77.22 19.8319C77.468 19.3599 77.812 18.9959 78.252 18.7399C78.7 18.4759 79.216 18.3439 79.8 18.3439C80.376 18.3439 80.872 18.4759 81.288 18.7399C81.712 18.9959 82.036 19.3359 82.26 19.7599C82.484 20.1839 82.596 20.6399 82.596 21.1279C82.596 21.2159 82.592 21.3039 82.584 21.3919C82.584 21.4799 82.584 21.5799 82.584 21.6919H77.844C77.868 22.1479 77.972 22.5279 78.156 22.8319C78.348 23.1279 78.584 23.3519 78.864 23.5039C79.152 23.6559 79.456 23.7319 79.776 23.7319C80.192 23.7319 80.54 23.6359 80.82 23.4439C81.1 23.2519 81.304 22.9919 81.432 22.6639H82.428C82.268 23.2159 81.96 23.6759 81.504 24.0439C81.056 24.4039 80.48 24.5839 79.776 24.5839ZM79.776 19.1959C79.296 19.1959 78.868 19.3439 78.492 19.6399C78.124 19.9279 77.912 20.3519 77.856 20.9119H81.6C81.576 20.3759 81.392 19.9559 81.048 19.6519C80.704 19.3479 80.28 19.1959 79.776 19.1959ZM86.0848 24.4399C85.5408 24.4399 85.1128 24.3079 84.8008 24.0439C84.4888 23.7799 84.3328 23.3039 84.3328 22.6159V19.3399H83.3008V18.4879H84.3328L84.4648 17.0599H85.3408V18.4879H87.0928V19.3399H85.3408V22.6159C85.3408 22.9919 85.4168 23.2479 85.5688 23.3839C85.7208 23.5119 85.9888 23.5759 86.3728 23.5759H86.9968V24.4399H86.0848ZM92.1612 17.1679C91.9612 17.1679 91.7932 17.1039 91.6572 16.9759C91.5292 16.8399 91.4652 16.6719 91.4652 16.4719C91.4652 16.2799 91.5292 16.1199 91.6572 15.9919C91.7932 15.8639 91.9612 15.7999 92.1612 15.7999C92.3532 15.7999 92.5172 15.8639 92.6532 15.9919C92.7892 16.1199 92.8572 16.2799 92.8572 16.4719C92.8572 16.6719 92.7892 16.8399 92.6532 16.9759C92.5172 17.1039 92.3532 17.1679 92.1612 17.1679ZM91.6572 24.4399V18.4879H92.6652V24.4399H91.6572ZM94.4203 24.4399V18.4879H95.3323L95.3923 19.5559C95.5843 19.1799 95.8603 18.8839 96.2203 18.6679C96.5803 18.4519 96.9883 18.3439 97.4443 18.3439C98.1483 18.3439 98.7083 18.5599 99.1243 18.9919C99.5483 19.4159 99.7603 20.0719 99.7603 20.9599V24.4399H98.7523V21.0679C98.7523 19.8279 98.2403 19.2079 97.2163 19.2079C96.7043 19.2079 96.2763 19.3959 95.9323 19.7719C95.5963 20.1399 95.4283 20.6679 95.4283 21.3559V24.4399H94.4203ZM107.175 24.5839C106.615 24.5839 106.111 24.4559 105.663 24.1999C105.215 23.9439 104.859 23.5839 104.595 23.1199C104.339 22.6479 104.211 22.0959 104.211 21.4639C104.211 20.8319 104.343 20.2839 104.607 19.8199C104.871 19.3479 105.227 18.9839 105.675 18.7279C106.131 18.4719 106.639 18.3439 107.199 18.3439C107.759 18.3439 108.263 18.4719 108.711 18.7279C109.159 18.9839 109.511 19.3479 109.767 19.8199C110.031 20.2839 110.163 20.8319 110.163 21.4639C110.163 22.0959 110.031 22.6479 109.767 23.1199C109.503 23.5839 109.143 23.9439 108.687 24.1999C108.239 24.4559 107.735 24.5839 107.175 24.5839ZM107.175 23.7199C107.519 23.7199 107.839 23.6359 108.135 23.4679C108.431 23.2999 108.671 23.0479 108.855 22.7119C109.039 22.3759 109.131 21.9599 109.131 21.4639C109.131 20.9679 109.039 20.5519 108.855 20.2159C108.679 19.8799 108.443 19.6279 108.147 19.4599C107.851 19.2919 107.535 19.2079 107.199 19.2079C106.855 19.2079 106.535 19.2919 106.239 19.4599C105.943 19.6279 105.703 19.8799 105.519 20.2159C105.335 20.5519 105.243 20.9679 105.243 21.4639C105.243 21.9599 105.335 22.3759 105.519 22.7119C105.703 23.0479 105.939 23.2999 106.227 23.4679C106.523 23.6359 106.839 23.7199 107.175 23.7199ZM111.565 24.4399V18.4879H112.477L112.537 19.5559C112.729 19.1799 113.005 18.8839 113.365 18.6679C113.725 18.4519 114.133 18.3439 114.589 18.3439C115.293 18.3439 115.853 18.5599 116.269 18.9919C116.693 19.4159 116.905 20.0719 116.905 20.9599V24.4399H115.897V21.0679C115.897 19.8279 115.385 19.2079 114.361 19.2079C113.849 19.2079 113.421 19.3959 113.077 19.7719C112.741 20.1399 112.573 20.6679 112.573 21.3559V24.4399H111.565Z" fill="white"/>
<a href="https://www.figma.com/design/PzQUNVEIeMrv8HjdXbjYra?node-id=19-2">
<rect fill="black" fill-opacity="0" y="-1.812" width="50.4109" height="15.624"/>
</a>
<path d="M72.8149 44.6199C71.8249 44.6199 70.9599 44.3949 70.2199 43.9449C69.4799 43.4949 68.9049 42.8649 68.4949 42.0549C68.0849 41.2449 67.8799 40.2999 67.8799 39.2199C67.8799 38.1499 68.0899 37.2049 68.5099 36.3849C68.9299 35.5649 69.5249 34.9249 70.2949 34.4649C71.0749 33.9949 71.9949 33.7599 73.0549 33.7599C74.2549 33.7599 75.2549 34.0499 76.0549 34.6299C76.8549 35.2099 77.3749 36.0099 77.6149 37.0299H75.8149C75.6549 36.4699 75.3399 36.0299 74.8699 35.7099C74.3999 35.3899 73.7949 35.2299 73.0549 35.2299C71.9549 35.2299 71.0899 35.5849 70.4599 36.2949C69.8299 37.0049 69.5149 37.9849 69.5149 39.2349C69.5149 40.4849 69.8249 41.4599 70.4449 42.1599C71.0649 42.8599 71.8899 43.2099 72.9199 43.2099C73.9599 43.2099 74.7399 42.9149 75.2599 42.3249C75.7899 41.7349 76.0999 40.9499 76.1899 39.9699H73.3399V38.7399H77.7949V44.4399H76.3399L76.2049 42.8949C75.8549 43.4449 75.4149 43.8699 74.8849 44.1699C74.3549 44.4699 73.6649 44.6199 72.8149 44.6199ZM83.1447 44.6199C82.4347 44.6199 81.7947 44.4599 81.2247 44.1399C80.6647 43.8099 80.2197 43.3549 79.8897 42.7749C79.5597 42.1849 79.3947 41.4999 79.3947 40.7199C79.3947 39.9399 79.5597 39.2599 79.8897 38.6799C80.2297 38.0899 80.6847 37.6349 81.2547 37.3149C81.8247 36.9849 82.4597 36.8199 83.1597 36.8199C83.8697 36.8199 84.5047 36.9849 85.0647 37.3149C85.6347 37.6349 86.0847 38.0899 86.4147 38.6799C86.7547 39.2599 86.9247 39.9399 86.9247 40.7199C86.9247 41.4999 86.7547 42.1849 86.4147 42.7749C86.0847 43.3549 85.6347 43.8099 85.0647 44.1399C84.4947 44.4599 83.8547 44.6199 83.1447 44.6199ZM83.1447 43.2549C83.5247 43.2549 83.8747 43.1599 84.1947 42.9699C84.5247 42.7799 84.7897 42.4999 84.9897 42.1299C85.1897 41.7499 85.2897 41.2799 85.2897 40.7199C85.2897 40.1599 85.1897 39.6949 84.9897 39.3249C84.7997 38.9449 84.5397 38.6599 84.2097 38.4699C83.8897 38.2799 83.5397 38.1849 83.1597 38.1849C82.7797 38.1849 82.4247 38.2799 82.0947 38.4699C81.7747 38.6599 81.5147 38.9449 81.3147 39.3249C81.1147 39.6949 81.0147 40.1599 81.0147 40.7199C81.0147 41.2799 81.1147 41.7499 81.3147 42.1299C81.5147 42.4999 81.7747 42.7799 82.0947 42.9699C82.4147 43.1599 82.7647 43.2549 83.1447 43.2549ZM92.1242 44.6199C91.4142 44.6199 90.7742 44.4599 90.2042 44.1399C89.6442 43.8099 89.1992 43.3549 88.8692 42.7749C88.5392 42.1849 88.3742 41.4999 88.3742 40.7199C88.3742 39.9399 88.5392 39.2599 88.8692 38.6799C89.2092 38.0899 89.6642 37.6349 90.2342 37.3149C90.8042 36.9849 91.4392 36.8199 92.1392 36.8199C92.8492 36.8199 93.4842 36.9849 94.0442 37.3149C94.6142 37.6349 95.0642 38.0899 95.3942 38.6799C95.7342 39.2599 95.9042 39.9399 95.9042 40.7199C95.9042 41.4999 95.7342 42.1849 95.3942 42.7749C95.0642 43.3549 94.6142 43.8099 94.0442 44.1399C93.4742 44.4599 92.8342 44.6199 92.1242 44.6199ZM92.1242 43.2549C92.5042 43.2549 92.8542 43.1599 93.1742 42.9699C93.5042 42.7799 93.7692 42.4999 93.9692 42.1299C94.1692 41.7499 94.2692 41.2799 94.2692 40.7199C94.2692 40.1599 94.1692 39.6949 93.9692 39.3249C93.7792 38.9449 93.5192 38.6599 93.1892 38.4699C92.8692 38.2799 92.5192 38.1849 92.1392 38.1849C91.7592 38.1849 91.4042 38.2799 91.0742 38.4699C90.7542 38.6599 90.4942 38.9449 90.2942 39.3249C90.0942 39.6949 89.9942 40.1599 89.9942 40.7199C89.9942 41.2799 90.0942 41.7499 90.2942 42.1299C90.4942 42.4999 90.7542 42.7799 91.0742 42.9699C91.3942 43.1599 91.7442 43.2549 92.1242 43.2549ZM100.273 42.1599C99.8831 42.1599 99.5231 42.1149 99.1931 42.0249L98.5481 42.6549C98.6581 42.7249 98.7931 42.7849 98.9531 42.8349C99.1131 42.8849 99.3381 42.9299 99.6281 42.9699C99.9181 43.0099 100.313 43.0499 100.813 43.0899C101.803 43.1799 102.518 43.4199 102.958 43.8099C103.398 44.1899 103.618 44.6999 103.618 45.3399C103.618 45.7799 103.498 46.1949 103.258 46.5849C103.028 46.9849 102.663 47.3049 102.163 47.5449C101.673 47.7949 101.043 47.9199 100.273 47.9199C99.2331 47.9199 98.3881 47.7199 97.7381 47.3199C97.0981 46.9299 96.7781 46.3349 96.7781 45.5349C96.7781 45.2249 96.8581 44.9149 97.0181 44.6049C97.1881 44.3049 97.4531 44.0199 97.8131 43.7499C97.6031 43.6599 97.4181 43.5649 97.2581 43.4649C97.1081 43.3549 96.9731 43.2449 96.8531 43.1349V42.7749L98.1431 41.4549C97.5631 40.9549 97.2731 40.2999 97.2731 39.4899C97.2731 38.9999 97.3881 38.5549 97.6181 38.1549C97.8581 37.7449 98.2031 37.4199 98.6531 37.1799C99.1031 36.9399 99.6431 36.8199 100.273 36.8199C100.693 36.8199 101.083 36.8799 101.443 36.9999H104.218V38.0499L102.898 38.1249C103.138 38.5349 103.258 38.9899 103.258 39.4899C103.258 39.9899 103.138 40.4399 102.898 40.8399C102.668 41.2399 102.328 41.5599 101.878 41.7999C101.438 42.0399 100.903 42.1599 100.273 42.1599ZM100.273 40.9149C100.733 40.9149 101.103 40.7949 101.383 40.5549C101.673 40.3049 101.818 39.9549 101.818 39.5049C101.818 39.0449 101.673 38.6949 101.383 38.4549C101.103 38.2149 100.733 38.0949 100.273 38.0949C99.8031 38.0949 99.4231 38.2149 99.1331 38.4549C98.8531 38.6949 98.7131 39.0449 98.7131 39.5049C98.7131 39.9549 98.8531 40.3049 99.1331 40.5549C99.4231 40.7949 99.8031 40.9149 100.273 40.9149ZM98.2781 45.3849C98.2781 45.8149 98.4681 46.1349 98.8481 46.3449C99.2281 46.5649 99.7031 46.6749 100.273 46.6749C100.823 46.6749 101.268 46.5549 101.608 46.3149C101.948 46.0849 102.118 45.7749 102.118 45.3849C102.118 45.0949 102.003 44.8449 101.773 44.6349C101.543 44.4349 101.108 44.3099 100.468 44.2599C99.9881 44.2299 99.5631 44.1849 99.1931 44.1249C98.8431 44.3149 98.6031 44.5199 98.4731 44.7399C98.3431 44.9599 98.2781 45.1749 98.2781 45.3849ZM105.636 44.4399V33.6399H107.226V44.4399H105.636ZM112.72 44.6199C111.99 44.6199 111.34 44.4599 110.77 44.1399C110.21 43.8099 109.77 43.3549 109.45 42.7749C109.13 42.1949 108.97 41.5199 108.97 40.7499C108.97 39.9699 109.125 39.2849 109.435 38.6949C109.755 38.1049 110.195 37.6449 110.755 37.3149C111.325 36.9849 111.985 36.8199 112.735 36.8199C113.465 36.8199 114.1 36.9849 114.64 37.3149C115.18 37.6349 115.6 38.0649 115.9 38.6049C116.2 39.1449 116.35 39.7399 116.35 40.3899C116.35 40.4899 116.345 40.5999 116.335 40.7199C116.335 40.8299 116.33 40.9549 116.32 41.0949H110.53C110.58 41.8149 110.815 42.3649 111.235 42.7449C111.665 43.1149 112.16 43.2999 112.72 43.2999C113.17 43.2999 113.545 43.1999 113.845 42.9999C114.155 42.7899 114.385 42.5099 114.535 42.1599H116.125C115.925 42.8599 115.525 43.4449 114.925 43.9149C114.335 44.3849 113.6 44.6199 112.72 44.6199ZM112.72 38.1249C112.19 38.1249 111.72 38.2849 111.31 38.6049C110.9 38.9149 110.65 39.3849 110.56 40.0149H114.76C114.73 39.4349 114.525 38.9749 114.145 38.6349C113.765 38.2949 113.29 38.1249 112.72 38.1249ZM121.839 44.4399V33.9399H125.514C126.334 33.9399 127.014 34.0799 127.554 34.3599C128.094 34.6299 128.494 35.0049 128.754 35.4849C129.024 35.9549 129.159 36.4899 129.159 37.0899C129.159 37.6599 129.029 38.1849 128.769 38.6649C128.519 39.1349 128.124 39.5099 127.584 39.7899C127.044 40.0699 126.354 40.2099 125.514 40.2099H123.429V44.4399H121.839ZM123.429 38.9049H125.439C126.189 38.9049 126.724 38.7449 127.044 38.4249C127.374 38.0949 127.539 37.6499 127.539 37.0899C127.539 36.5099 127.374 36.0599 127.044 35.7399C126.724 35.4099 126.189 35.2449 125.439 35.2449H123.429V38.9049ZM130.671 44.4399V33.6399H132.261V44.4399H130.671ZM136.794 44.6199C136.164 44.6199 135.644 44.5149 135.234 44.3049C134.824 44.0949 134.519 43.8199 134.319 43.4799C134.119 43.1299 134.019 42.7499 134.019 42.3399C134.019 41.6199 134.299 41.0499 134.859 40.6299C135.419 40.2099 136.219 39.9999 137.259 39.9999H139.209V39.8649C139.209 39.2849 139.049 38.8499 138.729 38.5599C138.419 38.2699 138.014 38.1249 137.514 38.1249C137.074 38.1249 136.689 38.2349 136.359 38.4549C136.039 38.6649 135.844 38.9799 135.774 39.3999H134.184C134.234 38.8599 134.414 38.3999 134.724 38.0199C135.044 37.6299 135.444 37.3349 135.924 37.1349C136.414 36.9249 136.949 36.8199 137.529 36.8199C138.569 36.8199 139.374 37.0949 139.944 37.6449C140.514 38.1849 140.799 38.9249 140.799 39.8649V44.4399H139.419L139.284 43.1649C139.074 43.5749 138.769 43.9199 138.369 44.1999C137.969 44.4799 137.444 44.6199 136.794 44.6199ZM137.109 43.3299C137.539 43.3299 137.899 43.2299 138.189 43.0299C138.489 42.8199 138.719 42.5449 138.879 42.2049C139.049 41.8649 139.154 41.4899 139.194 41.0799H137.424C136.794 41.0799 136.344 41.1899 136.074 41.4099C135.814 41.6299 135.684 41.9049 135.684 42.2349C135.684 42.5749 135.809 42.8449 136.059 43.0449C136.319 43.2349 136.669 43.3299 137.109 43.3299ZM143.289 47.7399L145.074 43.8249H144.639L141.699 36.9999H143.424L145.704 42.5049L148.089 36.9999H149.769L144.969 47.7399H143.289Z" fill="white"/>
<a href="https://www.figma.com/design/PzQUNVEIeMrv8HjdXbjYra?node-id=19-2">
<rect fill="black" fill-opacity="0" y="-2.265" width="82.8786" height="19.53"/>
</a>
</svg>
